<svg
    xmlns="http://www.w3.org/2000/svg"
    viewBox="0 0 640 640"
    id="vector">
    <path
        id="path"
        d="M 208.05 0 C 322.91 0.18 415.94 93.3 416 208.16 C 416.07 347.04 225.93 534.41 216.11 545.53 C 216.09 545.54 215.99 545.66 215.98 545.67 C 215.86 545.8 215.74 545.93 215.62 546.05 C 215.6 546.06 215.52 546.14 215.38 546.28 C 215.24 546.42 215.16 546.49 215.15 546.51 C 210.74 550.45 203.97 550.08 200.02 545.67 C 191.88 536.57 -0.07 355.06 0 208.16 C 0.05 93.26 93.15 0.12 208.05 0 Z"
        fill="#2f80ed"/>
    <path
        id="path_1"
        d="M 208.05 0 C 322.91 0.18 415.94 93.3 416 208.16 C 416.07 347.04 225.93 534.41 216.11 545.53 C 216.09 545.54 215.99 545.66 215.98 545.67 C 215.86 545.8 215.74 545.93 215.62 546.05 C 215.6 546.06 215.52 546.14 215.38 546.28 C 215.24 546.42 215.16 546.49 215.15 546.51 C 210.74 550.45 203.97 550.08 200.02 545.67 C 191.88 536.57 -0.07 355.06 0 208.16 C 0.05 93.26 93.15 0.12 208.05 0 Z"
        fill="#000000"
        fill-opacity="0"
        stroke="#000000"
        stroke-opacity="0"
        stroke-width="1"/>
    <path
        id="path_2"
        d="M 406.83 207.47 C 406.83 317.56 317.45 406.94 207.36 406.94 C 97.27 406.94 7.89 317.56 7.89 207.47 C 7.89 97.38 97.27 8 207.36 8 C 317.45 8 406.83 97.38 406.83 207.47 Z"
        fill="#ffffff"/>
    <path
        id="path_3"
        d="M 122.25 193.32 C 173.18 192.19 220.69 216.78 261.39 245.13 C 275.18 254.74 289.04 264.7 305.35 269.54 C 315.47 272.55 327.08 273.87 337.7 272.81 C 348.11 271.77 359.63 266.81 363.83 256.53 C 373.47 232.92 345.01 222.1 327.13 220.12 C 316.89 219 306.51 219.4 296.29 220.52 C 293.69 220.8 269.32 225.11 269.26 224.86 C 268.69 222.62 298.58 216.07 301.61 215.51 C 313.69 213.26 326.23 212.01 338.47 213.58 C 354.15 215.57 372.43 223.55 377.24 240.33 C 381.49 255.14 374.27 270.52 363.2 280.31 C 350.73 291.35 335.78 293.28 319.67 292.91 C 282.41 292.05 253.81 269.56 221.48 254.1 C 187 237.63 143.69 225.42 105.86 236.79 C 92.65 240.77 80.34 246.85 68.32 253.64 C 61.77 257.35 59.29 260.11 53.23 260.37 C 29.46 261.39 16.89 235.55 35.76 221.05 C 60.1 203.59 92.5 193.98 122.25 193.32 Z"
        fill="#2f80ed"/>
    <path
        id="path_4"
        d="M 88.59 286.09 C 93.67 282.42 99.06 279.19 104.7 276.46 C 110.47 273.68 116.54 271.58 122.8 270.2 C 128.99 268.86 135.32 268.21 141.66 268.27 C 147.83 268.33 153.99 268.91 160.06 270.01 C 165.99 271.08 171.85 272.49 177.61 274.24 C 179.04 274.67 180.46 275.11 181.87 275.57 C 182.09 275.64 183.79 276.21 184 276.28 C 184.71 276.52 185.41 276.78 186.11 277.02 C 188.92 278.02 191.7 279.07 194.44 280.2 C 199.93 282.43 205.27 284.89 210.52 287.45 C 221.02 292.59 231.13 298.19 241.2 303.65 C 246.23 306.38 251.26 309.07 256.32 311.66 C 258.85 312.95 261.39 314.21 263.94 315.44 C 266.49 316.68 269.05 317.85 271.62 318.98 C 276.76 321.24 282.01 323.24 287.35 324.97 C 292.66 326.68 298.09 327.99 303.59 328.88 C 309.09 329.76 314.65 330.1 320.2 329.87 C 325.78 329.63 331.32 328.8 336.72 327.39 C 336.98 327.31 337.26 327.29 337.53 327.32 C 337.81 327.35 338.07 327.43 338.31 327.56 C 338.55 327.7 338.77 327.88 338.94 328.09 C 339.11 328.3 339.24 328.55 339.31 328.81 C 339.39 329.08 339.41 329.36 339.38 329.63 C 339.35 329.9 339.27 330.17 339.14 330.41 C 339.01 330.65 338.83 330.86 338.61 331.03 C 338.4 331.21 338.15 331.33 337.89 331.41 C 332.26 333.23 326.45 334.44 320.57 335.03 C 314.66 335.6 308.71 335.58 302.81 334.98 C 296.93 334.36 291.1 333.3 285.38 331.81 C 279.7 330.33 274.09 328.55 268.59 326.49 C 265.85 325.47 263.13 324.4 260.42 323.28 C 257.73 322.17 255.06 321.02 252.42 319.84 C 247.11 317.48 241.87 315.03 236.67 312.57 C 226.26 307.65 215.98 302.67 205.58 298.27 C 200.39 296.08 195.16 294.03 189.91 292.22 C 187.28 291.3 184.64 290.47 181.99 289.68 C 181.32 289.49 180.66 289.29 180 289.11 C 179.8 289.05 178.2 288.61 178.01 288.56 C 176.67 288.2 175.33 287.86 173.99 287.53 C 168.68 286.22 163.3 285.23 157.88 284.55 C 152.6 283.88 147.27 283.66 141.96 283.89 C 136.81 284.12 131.7 284.92 126.72 286.27 C 121.82 287.64 117.08 289.57 112.62 292.03 C 103.61 296.94 95.43 303.91 87.53 311.64 C 86.62 312.53 85.55 313.23 84.37 313.7 C 83.19 314.17 81.93 314.41 80.66 314.4 C 79.39 314.38 78.14 314.12 76.97 313.62 C 75.8 313.12 74.74 312.39 73.86 311.48 C 72.97 310.58 72.27 309.5 71.8 308.32 C 71.32 307.14 71.09 305.88 71.1 304.61 C 71.12 303.34 71.38 302.09 71.88 300.92 C 72.38 299.75 73.11 298.7 74.01 297.81 C 74.13 297.69 74.25 297.58 74.38 297.47 C 74.38 297.47 74.39 297.46 74.41 297.45 C 80.52 292.26 85.24 288.48 88.59 286.09 Z"
        fill="#2f80ed"/>
    <path
        id="path_5"
        d="M 79.46 256.61 C 82.4 254.91 85.41 253.34 88.49 251.91 C 91.57 250.49 94.7 249.22 97.88 248.1 C 104.26 245.85 110.83 244.2 117.52 243.2 C 120.86 242.69 124.23 242.35 127.6 242.19 C 130.96 242.03 134.29 242.02 137.61 242.15 C 150.87 242.7 163.74 245.28 176.08 249.08 C 182.23 250.99 188.29 253.2 194.22 255.71 C 200.12 258.2 205.87 260.96 211.51 263.86 C 222.78 269.66 233.56 276.01 244.39 282.03 C 255.21 288.05 266.11 293.85 277.45 298.49 C 283.09 300.83 288.87 302.83 294.76 304.47 C 297.69 305.27 300.65 305.97 303.63 306.54 C 306.61 307.12 309.62 307.54 312.63 307.82 C 318.64 308.42 324.7 308.29 330.69 307.43 C 336.65 306.56 342.46 304.85 347.95 302.36 C 348.49 302.1 349.12 302.08 349.68 302.29 C 350.24 302.49 350.7 302.92 350.95 303.46 C 351.2 304.01 351.23 304.63 351.02 305.19 C 350.81 305.75 350.39 306.21 349.85 306.46 C 346.92 307.82 343.91 308.98 340.84 309.95 C 337.76 310.91 334.63 311.66 331.45 312.19 C 328.28 312.73 325.07 313.07 321.86 313.22 C 320.25 313.29 318.64 313.33 317.04 313.31 C 315.44 313.3 313.83 313.25 312.23 313.15 C 309.03 312.96 305.85 312.6 302.69 312.13 C 299.52 311.65 296.39 311.04 293.29 310.32 C 287.1 308.86 281 307.05 275.02 304.9 C 269.04 302.77 263.18 300.39 257.41 297.84 C 251.64 295.28 245.96 292.57 240.33 289.81 C 229.08 284.28 218.06 278.54 206.87 273.51 C 201.28 270.99 195.65 268.65 189.96 266.58 C 184.29 264.52 178.52 262.76 172.67 261.31 C 161.02 258.42 149.11 256.77 137.44 256.96 C 134.52 257.01 131.63 257.19 128.77 257.49 C 125.93 257.78 123.11 258.23 120.32 258.82 C 114.73 260.01 109.28 261.74 104.02 263.97 C 93.51 268.41 83.84 274.8 75.97 282.68 C 75.08 283.58 74.01 284.29 72.84 284.78 C 71.66 285.27 70.4 285.52 69.13 285.52 C 67.86 285.52 66.61 285.27 65.43 284.78 C 64.26 284.3 63.19 283.58 62.29 282.69 C 61.39 281.79 60.68 280.72 60.19 279.55 C 59.71 278.38 59.45 277.12 59.45 275.85 C 59.45 274.58 59.7 273.32 60.19 272.15 C 60.67 270.97 61.39 269.9 62.28 269.01 C 62.43 268.86 62.58 268.73 62.73 268.58 C 62.74 268.58 62.75 268.57 62.77 268.55 C 69.94 262.88 75.5 258.9 79.46 256.61 Z"
        fill="#2f80ed"/>
    <path
        id="path_6"
        d="M 73.64 282.06 L 73.61 282.09 L 73.64 282.06 Z"
        fill="#2f80ed"/>
    <path
        id="path_7"
        d="M 146.71 295.94 C 193.67 295.88 243.37 333.72 246.01 333.57 C 246.01 333.57 153.07 339.65 94.99 327.19 C 91.47 325.81 115.21 295.97 146.71 295.94 Z"
        fill="#2f80ed"/>
    <path
        id="path_8"
        d="M 322.46 266.26 C 334.87 266.97 356.57 266.16 358.6 250.52 C 361.24 229.98 331.61 226.72 317.4 226.47 C 298.83 226.16 279.88 228.86 262.83 236.48 C 267.19 239.32 292.38 264.54 322.46 266.26 Z"
        fill="#2f80ed"/>
    <path
        id="path_9"
        d="M 138.8 185.77 C 138.77 185.71 138.51 185.25 138.48 185.2 C 138.26 184.81 138.03 184.43 137.8 184.05 C 137.33 183.29 136.84 182.54 136.35 181.79 C 135.36 180.29 134.3 178.82 133.2 177.4 C 132.1 175.98 130.94 174.59 129.72 173.26 C 128.51 171.92 127.24 170.64 125.9 169.43 C 123.25 166.98 120.28 164.89 117.08 163.22 C 115.46 162.41 113.78 161.74 112.04 161.22 C 110.29 160.74 108.48 160.44 106.66 160.32 C 106.59 160.32 106.52 160.29 106.47 160.24 C 106.41 160.18 106.38 160.11 106.38 160.04 C 106.38 159.97 106.41 159.9 106.47 159.84 C 106.52 159.79 106.59 159.76 106.66 159.76 C 108.55 159.68 110.44 159.8 112.3 160.1 C 114.17 160.43 116.01 160.94 117.8 161.59 C 121.36 162.97 124.73 164.82 127.81 167.08 C 129.36 168.19 130.85 169.4 132.28 170.65 C 133.71 171.91 135.1 173.23 136.42 174.6 C 137.75 175.97 139.03 177.39 140.27 178.85 C 140.88 179.59 141.48 180.33 142.07 181.09 C 142.37 181.47 142.66 181.86 142.95 182.25 C 142.99 182.31 143.34 182.78 143.38 182.84 C 143.53 183.05 143.66 183.23 143.83 183.48 C 143.83 183.48 143.86 183.52 143.86 183.53 C 144.27 184.14 144.42 184.89 144.28 185.61 C 144.13 186.33 143.71 186.96 143.1 187.37 C 142.49 187.78 141.74 187.93 141.02 187.79 C 140.3 187.64 139.66 187.22 139.26 186.61 C 139.2 186.52 139.14 186.41 139.1 186.32 C 139.02 186.17 138.9 185.96 138.8 185.77 Z"
        fill="#2f80ed"/>
    <path
        id="path_10"
        d="M 181.02 187.56 L 181.07 187.27 C 181.13 186.9 181.16 186.7 181.17 186.66 C 181.23 186.25 181.29 185.83 181.35 185.42 C 181.47 184.59 181.57 183.77 181.66 182.92 C 181.83 181.24 181.97 179.55 182.05 177.85 C 182.23 174.46 182.23 171.04 182.07 167.63 C 181.77 160.79 180.81 153.99 179.2 147.34 C 178.37 144.01 177.38 140.71 176.25 137.48 C 175.63 135.87 175.06 134.25 174.37 132.68 C 174.33 132.6 174.16 132.2 173.86 131.49 L 173.61 130.89 L 173.34 130.31 C 172.67 128.9 172.3 128.12 172.23 127.97 C 170.72 124.86 169.03 121.85 167.17 118.94 C 165.31 116.01 163.3 113.19 161.13 110.48 C 161.09 110.43 161.07 110.36 161.08 110.29 C 161.09 110.22 161.13 110.15 161.18 110.11 C 161.24 110.07 161.31 110.04 161.38 110.05 C 161.45 110.05 161.51 110.08 161.56 110.13 C 163.9 112.73 166.1 115.45 168.15 118.29 C 170.21 121.13 172.1 124.08 173.83 127.14 C 173.91 127.3 174.33 128.07 175.09 129.46 L 175.4 130.04 L 175.69 130.63 C 176.04 131.34 176.24 131.73 176.28 131.81 C 177.08 133.38 177.77 135 178.49 136.6 C 179.85 139.85 181.07 143.17 182.12 146.55 C 184.19 153.32 185.6 160.28 186.33 167.33 C 186.7 170.85 186.91 174.4 186.94 177.96 C 186.96 179.74 186.92 181.53 186.85 183.32 C 186.8 184.22 186.75 185.11 186.68 186.01 C 186.65 186.46 186.61 186.91 186.56 187.37 C 186.56 187.41 186.53 187.64 186.49 188.05 L 186.45 188.4 C 186.42 188.63 186.4 188.76 186.4 188.78 C 186.35 189.14 186.23 189.49 186.05 189.8 C 185.86 190.12 185.62 190.39 185.34 190.61 C 185.05 190.84 184.72 191 184.37 191.09 C 184.02 191.18 183.65 191.21 183.29 191.16 C 182.93 191.11 182.58 190.99 182.27 190.81 C 181.96 190.63 181.68 190.39 181.46 190.1 C 181.24 189.81 181.08 189.48 180.98 189.13 C 180.89 188.78 180.87 188.42 180.92 188.06 C 180.92 188.05 180.93 188 180.94 187.9 L 180.97 187.84 L 181.02 187.56 Z"
        fill="#2f80ed"/>
    <path
        id="path_11"
        d="M 228.05 203.87 C 228 203.4 227.95 202.95 227.9 202.48 C 227.81 201.57 227.73 200.66 227.66 199.75 C 227.51 197.93 227.42 196.11 227.35 194.29 C 227.22 190.65 227.24 187.02 227.4 183.39 C 227.55 179.76 227.85 176.15 228.3 172.55 C 228.76 168.95 229.38 165.38 230.16 161.84 C 230.94 158.3 231.91 154.81 233.08 151.38 C 234.23 147.95 235.59 144.59 237.18 141.34 C 237.58 140.53 237.97 139.72 238.39 138.92 C 238.52 138.68 239.58 136.79 239.71 136.55 C 240.13 135.75 240.64 135 241.11 134.23 C 241.18 134.12 241.75 133.2 241.82 133.09 C 241.94 132.9 242.06 132.7 242.19 132.52 C 242.21 132.48 242.34 132.3 242.57 131.97 L 244.13 129.76 L 244.32 129.48 L 244.53 129.2 L 244.95 128.68 L 245.78 127.61 C 246.28 126.98 246.55 126.63 246.61 126.56 C 246.88 126.21 247.2 125.88 247.5 125.55 C 247.67 125.34 249.1 123.73 249.28 123.53 C 249.33 123.48 249.4 123.44 249.47 123.43 C 249.54 123.43 249.62 123.45 249.67 123.5 C 249.73 123.54 249.77 123.61 249.77 123.68 C 249.78 123.76 249.76 123.83 249.71 123.89 C 249.71 123.89 249.71 123.89 249.71 123.9 C 248.71 125.15 248.16 125.85 248.05 125.99 C 247.78 126.34 247.5 126.68 247.22 127.04 C 247.17 127.12 246.92 127.48 246.46 128.15 L 245.7 129.24 L 245.32 129.79 L 245.13 130.06 L 244.95 130.34 L 243.55 132.6 C 243.34 132.93 243.22 133.12 243.2 133.15 C 243.09 133.34 242.99 133.54 242.88 133.73 C 242.81 133.85 242.3 134.78 242.24 134.9 C 241.82 135.68 241.37 136.44 241 137.25 C 240.89 137.48 239.96 139.39 239.85 139.63 C 239.49 140.44 239.15 141.26 238.8 142.07 C 237.44 145.33 236.3 148.67 235.38 152.08 C 234.44 155.48 233.69 158.92 233.13 162.4 C 232.58 165.89 232.18 169.38 231.93 172.9 C 231.68 176.42 231.59 179.93 231.65 183.45 C 231.71 186.97 231.9 190.47 232.22 193.97 C 232.39 195.72 232.58 197.46 232.82 199.19 C 232.94 200.05 233.06 200.91 233.21 201.77 C 233.27 202.2 233.35 202.62 233.42 203.05 C 233.49 203.48 233.58 203.91 233.66 204.28 C 233.73 204.63 233.74 205 233.67 205.35 C 233.6 205.71 233.47 206.05 233.27 206.35 C 233.07 206.66 232.82 206.92 232.52 207.13 C 232.22 207.33 231.88 207.48 231.53 207.55 C 231.17 207.63 230.81 207.63 230.45 207.57 C 230.09 207.5 229.75 207.36 229.45 207.16 C 229.14 206.97 228.88 206.71 228.68 206.41 C 228.47 206.11 228.33 205.77 228.25 205.42 C 228.26 205.4 228.25 205.34 228.24 205.29 C 228.17 204.77 228.11 204.33 228.05 203.87 Z"
        fill="#2f80ed"/>
    <path
        id="path_12"
        d="M 278.58 207.24 C 278.64 207.05 279.12 205.61 279.18 205.43 C 279.59 204.23 280.01 203.04 280.44 201.84 C 281.31 199.46 282.23 197.11 283.2 194.78 C 285.13 190.11 287.3 185.55 289.73 181.11 C 292.17 176.7 294.91 172.41 298.23 168.56 C 299.87 166.62 301.71 164.86 303.72 163.3 C 305.72 161.72 308 160.52 310.43 159.77 C 310.51 159.74 310.58 159.75 310.65 159.78 C 310.71 159.81 310.76 159.87 310.79 159.94 C 310.81 160.01 310.8 160.09 310.77 160.15 C 310.74 160.22 310.68 160.27 310.61 160.29 C 308.34 161.2 306.26 162.53 304.47 164.2 C 302.67 165.85 301.05 167.69 299.63 169.68 C 296.76 173.64 294.45 178 292.45 182.47 C 290.46 186.97 288.72 191.57 287.23 196.26 C 286.48 198.6 285.79 200.96 285.14 203.33 C 284.81 204.51 284.5 205.7 284.21 206.89 C 284.16 207.07 283.82 208.49 283.77 208.67 C 283.64 209.26 283.5 209.87 283.38 210.43 C 283.23 211.14 282.8 211.77 282.19 212.17 C 281.58 212.57 280.83 212.72 280.11 212.57 C 279.39 212.42 278.77 211.99 278.36 211.37 C 277.96 210.76 277.82 210.01 277.97 209.3 C 277.96 209.24 277.98 209.15 278 209.08 C 278.2 208.43 278.39 207.84 278.58 207.24 Z"
        fill="#2f80ed"/>
    <path
        id="path_13"
        d="M 64.61 155.02 C 67.19 158.58 70.82 161.23 75 162.59 C 79.17 163.95 83.67 163.95 87.84 162.59 C 92.02 161.23 95.65 158.58 98.22 155.02 C 100.8 151.46 102.18 147.18 102.16 142.79 C 102.18 138.4 100.8 134.12 98.22 130.56 C 95.65 127 92.02 124.35 87.84 122.99 C 83.67 121.63 79.17 121.63 75 122.99 C 70.82 124.35 67.19 127 64.61 130.56 C 62.04 134.12 60.66 138.4 60.68 142.79 C 60.66 147.18 62.04 151.46 64.61 155.02 Z"
        fill="#2f80ed"/>
    <path
        id="path_14"
        d="M 101.98 139.93 C 101.68 137.73 101.02 135.59 100.04 133.6 C 99.84 133.2 99.63 132.8 99.4 132.41 C 99.11 131.9 98.79 131.4 98.43 130.9 C 96.44 128.04 93.75 125.73 90.62 124.18 C 87.49 122.64 84.02 121.91 80.54 122.06 C 77.05 122.21 73.66 123.24 70.67 125.05 C 67.69 126.86 65.21 129.39 63.47 132.41 C 63.41 132.51 63.37 132.61 63.31 132.69 C 63.22 132.85 63.14 133.01 63.04 133.17 C 63.02 133.19 63.01 133.2 63 133.22 C 62.97 133.28 62.94 133.35 62.92 133.41 C 62.82 133.58 62.74 133.77 62.65 133.96 C 62.57 134.15 62.45 134.38 62.36 134.6 C 62.27 134.82 62.21 134.97 62.14 135.15 C 62.06 135.34 61.97 135.59 61.89 135.81 C 61.81 136.03 61.76 136.2 61.69 136.39 C 61.63 136.58 61.56 136.82 61.5 137.04 C 61.43 137.25 61.38 137.44 61.33 137.65 C 61.27 137.85 61.23 138.07 61.18 138.29 C 61.13 138.5 61.08 138.71 61.04 138.92 C 61.01 139.13 60.97 139.36 60.94 139.58 C 60.9 139.8 60.87 139.99 60.84 140.2 C 60.82 140.41 60.79 140.7 60.77 140.94 C 60.75 141.13 60.73 141.31 60.72 141.49 C 60.69 141.9 60.68 142.32 60.68 142.72 C 60.68 142.73 60.68 142.81 60.68 142.82 C 60.68 143.23 60.68 143.62 60.71 144.01 C 60.71 144.1 60.71 144.18 60.73 144.27 C 60.75 144.61 60.79 144.95 60.83 145.28 C 60.83 145.31 60.83 145.35 60.83 145.38 C 60.83 145.41 60.84 145.49 60.85 145.54 C 60.88 145.76 60.91 145.98 60.94 146.2 C 60.95 146.24 61.01 146.57 61.02 146.61 C 61.05 146.78 61.08 146.95 61.12 147.12 C 61.16 147.29 61.21 147.52 61.26 147.72 C 61.28 147.83 61.31 147.93 61.34 148.04 C 61.41 148.32 61.5 148.62 61.58 148.91 C 61.58 148.91 61.58 148.94 61.58 148.94 C 62.53 151.97 64.15 154.75 66.34 157.05 C 68.52 159.36 71.2 161.13 74.17 162.24 C 74.18 162.24 74.26 162.27 74.27 162.27 C 74.55 162.37 74.83 162.47 75.1 162.55 C 75.12 162.55 75.24 162.59 75.26 162.6 C 75.53 162.68 75.79 162.76 76.06 162.83 C 76.08 162.83 76.21 162.87 76.23 162.87 C 76.51 162.94 76.78 163.01 77.06 163.07 C 77.07 163.07 77.19 163.1 77.2 163.1 C 77.5 163.16 77.8 163.22 78.1 163.26 C 78.11 163.26 78.18 163.28 78.19 163.28 C 79.02 163.41 79.86 163.49 80.7 163.52 C 80.7 163.52 80.7 163.52 80.7 163.53 L 80.98 163.53 C 81 163.53 81.01 163.53 81.01 163.53 C 81.13 163.53 81.24 163.53 81.36 163.53 C 81.36 163.53 81.4 163.53 81.41 163.53 C 81.43 163.54 81.45 163.54 81.48 163.53 C 81.48 163.53 81.5 163.53 81.51 163.53 C 81.74 163.53 81.97 163.53 82.19 163.51 C 87.55 163.31 92.62 161.04 96.34 157.18 C 100.07 153.31 102.15 148.16 102.15 142.8 C 102.18 142.32 102.16 141.87 102.13 141.41 C 102.1 140.91 102.04 140.42 101.98 139.93 Z M 62.76 147.87 C 65.33 150.66 68.61 152.68 72.25 153.73 C 75.89 154.78 79.75 154.8 83.4 153.8 C 83.25 156.72 82.44 159.57 81.04 162.13 C 76.97 162.04 73.03 160.67 69.79 158.22 C 66.54 155.78 64.14 152.37 62.93 148.49 C 62.92 148.43 62.91 148.4 62.89 148.36 C 62.85 148.2 62.8 148.04 62.76 147.87 Z M 78.01 129.48 C 74.89 132.02 72.58 135.42 71.36 139.25 C 68.7 137.64 66.48 135.41 64.87 132.76 C 64.95 132.63 65.03 132.49 65.11 132.37 C 65.22 132.2 65.33 132.03 65.44 131.85 C 65.56 131.68 65.7 131.5 65.83 131.32 C 65.96 131.14 66.07 130.99 66.19 130.84 C 66.24 130.78 66.57 130.38 66.61 130.33 C 66.74 130.18 66.87 130.02 67 129.87 C 67.13 129.72 67.3 129.55 67.45 129.4 C 67.61 129.24 67.73 129.11 67.87 128.97 C 68.01 128.83 68.19 128.67 68.35 128.52 C 68.51 128.37 68.63 128.24 68.79 128.12 C 68.95 128 69.13 127.85 69.3 127.71 C 69.47 127.56 69.6 127.46 69.76 127.35 C 69.91 127.23 70.12 127.08 70.31 126.96 C 70.5 126.83 70.62 126.73 70.79 126.63 C 70.95 126.52 71.16 126.39 71.35 126.27 C 71.54 126.16 71.68 126.07 71.84 125.98 C 72.01 125.88 72.24 125.76 72.44 125.66 C 72.64 125.55 72.77 125.48 72.95 125.39 C 73.12 125.31 73.36 125.2 73.57 125.12 C 73.77 125.03 73.9 124.96 74.08 124.89 C 74.26 124.82 74.51 124.72 74.73 124.64 C 74.94 124.56 75.07 124.51 75.25 124.45 C 75.47 124.37 75.69 124.31 75.92 124.24 C 76.09 124.19 76.27 124.13 76.44 124.08 C 76.67 124.02 76.91 123.97 77.14 123.92 C 77.32 123.88 77.49 123.83 77.66 123.8 C 77.91 123.75 78.16 123.71 78.41 123.67 C 78.58 123.65 78.74 123.61 78.91 123.59 C 79.18 123.55 79.46 123.53 79.76 123.5 C 79.89 123.5 80.03 123.47 80.17 123.47 C 80.59 123.44 81.01 123.42 81.44 123.42 C 84.02 123.42 86.57 123.93 88.94 124.93 C 88.94 124.93 88.94 124.93 88.93 124.93 C 83.73 126.27 80.09 127.78 78.01 129.48 Z M 94.8 146.03 C 93.98 142.21 92.09 138.7 89.36 135.9 C 92 134.44 94.93 133.61 97.94 133.47 C 97.99 133.47 98.34 133.46 98.39 133.46 C 100.53 137.35 101.27 141.87 100.47 146.25 C 99.67 150.63 97.38 154.6 93.99 157.48 C 93.99 157.49 93.99 157.49 93.99 157.5 C 95.08 152.4 95.34 148.58 94.8 146.03 Z"
        fill="#ffd80b"/>
    <path
        id="path_15"
        d="M 101.98 139.93 C 101.68 137.73 101.02 135.6 100.04 133.6 C 99.84 133.2 99.63 132.8 99.4 132.41 C 99.11 131.9 98.79 131.41 98.43 130.9 C 96.44 128.04 93.75 125.73 90.62 124.19 C 87.49 122.64 84.02 121.91 80.54 122.06 C 77.05 122.21 73.66 123.24 70.67 125.05 C 67.69 126.86 65.21 129.39 63.47 132.42 C 63.41 132.51 63.37 132.61 63.31 132.69 C 63.22 132.85 63.14 133.01 63.04 133.18 C 63.02 133.19 63.01 133.21 63 133.23 C 62.97 133.29 62.94 133.35 62.92 133.41 C 62.82 133.59 62.74 133.77 62.65 133.96 C 62.57 134.15 62.45 134.39 62.36 134.61 C 62.27 134.82 62.21 134.97 62.14 135.16 C 62.06 135.35 61.97 135.6 61.89 135.82 C 61.81 136.03 61.76 136.2 61.69 136.39 C 61.63 136.59 61.56 136.82 61.5 137.04 C 61.43 137.26 61.38 137.45 61.33 137.65 C 61.27 137.86 61.23 138.08 61.18 138.29 C 61.13 138.51 61.08 138.71 61.04 138.92 C 61.01 139.14 60.97 139.36 60.94 139.58 C 60.9 139.8 60.87 140 60.84 140.2 C 60.82 140.41 60.79 140.7 60.77 140.95 C 60.75 141.13 60.73 141.31 60.72 141.5 C 60.69 141.91 60.68 142.33 60.68 142.72 C 60.68 142.73 60.68 142.82 60.68 142.83 C 60.68 143.23 60.68 143.62 60.71 144.02 C 60.71 144.1 60.71 144.19 60.73 144.27 C 60.75 144.61 60.79 144.95 60.83 145.28 C 60.83 145.32 60.83 145.35 60.83 145.39 C 60.83 145.42 60.84 145.49 60.85 145.55 C 60.88 145.76 60.91 145.98 60.94 146.2 C 60.95 146.24 61.01 146.57 61.02 146.62 C 61.05 146.79 61.08 146.96 61.12 147.13 C 61.16 147.3 61.21 147.53 61.26 147.72 C 61.28 147.83 61.31 147.94 61.34 148.04 C 61.41 148.32 61.5 148.62 61.58 148.91 C 61.58 148.91 61.58 148.95 61.58 148.95 C 62.53 151.98 64.15 154.75 66.34 157.06 C 68.52 159.36 71.2 161.13 74.17 162.24 C 74.18 162.24 74.26 162.27 74.27 162.28 C 74.55 162.38 74.83 162.47 75.1 162.55 C 75.12 162.56 75.24 162.6 75.26 162.6 C 75.53 162.68 75.79 162.76 76.06 162.83 C 76.08 162.84 76.21 162.88 76.23 162.88 C 76.51 162.95 76.78 163.01 77.06 163.07 C 77.07 163.08 77.19 163.1 77.2 163.11 C 77.5 163.17 77.8 163.22 78.1 163.27 C 78.11 163.27 78.18 163.28 78.19 163.29 C 79.02 163.42 79.86 163.5 80.7 163.52 C 80.7 163.52 80.7 163.53 80.7 163.54 L 80.98 163.54 C 81 163.54 81.01 163.54 81.01 163.54 C 81.13 163.54 81.24 163.54 81.36 163.54 C 81.36 163.54 81.4 163.54 81.41 163.54 C 81.43 163.55 81.45 163.55 81.48 163.54 C 81.48 163.54 81.5 163.54 81.51 163.54 C 81.74 163.54 81.97 163.54 82.19 163.52 C 87.55 163.32 92.62 161.04 96.34 157.18 C 100.07 153.32 102.15 148.16 102.15 142.8 C 102.18 142.33 102.16 141.87 102.13 141.42 C 102.1 140.92 102.04 140.42 101.98 139.93 Z M 82.63 162.09 C 84.13 159.09 84.88 155.76 84.81 152.4 C 84.74 149.05 83.86 145.75 82.25 142.81 C 83.74 140.34 85.75 138.24 88.15 136.65 C 89.97 138.45 91.4 140.59 92.39 142.95 C 93.37 145.31 93.88 147.84 93.88 150.39 C 93.89 153.43 93.17 156.43 91.78 159.14 C 89.03 160.89 85.88 161.9 82.63 162.09 Z M 62.76 147.88 C 65.33 150.66 68.61 152.69 72.25 153.74 C 75.89 154.78 79.75 154.8 83.4 153.81 C 83.25 156.72 82.44 159.57 81.04 162.13 C 76.97 162.04 73.03 160.68 69.79 158.23 C 66.54 155.78 64.14 152.38 62.93 148.49 C 62.92 148.44 62.91 148.4 62.89 148.36 C 62.85 148.2 62.8 148.04 62.76 147.88 Z M 62.1 141.57 C 62.1 141.4 62.13 141.24 62.15 141.07 C 62.17 140.83 62.19 140.6 62.22 140.37 C 62.24 140.14 62.27 139.99 62.3 139.8 C 62.33 139.6 62.36 139.38 62.4 139.18 C 62.44 138.97 62.48 138.79 62.53 138.59 C 62.57 138.4 62.62 138.19 62.67 137.99 C 62.72 137.79 62.77 137.62 62.82 137.44 C 62.87 137.26 62.94 137.02 63.01 136.82 C 63.07 136.61 63.12 136.47 63.18 136.3 C 63.24 136.12 63.34 135.87 63.42 135.66 C 63.48 135.5 63.55 135.33 63.62 135.18 C 63.71 134.96 63.81 134.75 63.9 134.55 C 63.96 134.41 64.02 134.27 64.09 134.13 C 65.94 136.95 68.45 139.27 71.4 140.9 C 74.35 142.52 77.65 143.41 81.02 143.47 C 82.52 146.2 83.34 149.25 83.41 152.37 C 79.55 153.51 75.43 153.41 71.63 152.1 C 67.83 150.78 64.53 148.31 62.21 145.02 C 62.17 144.73 62.15 144.44 62.12 144.15 C 62.12 144.07 62.12 143.99 62.11 143.92 C 62.08 143.55 62.07 143.18 62.07 142.81 C 62.07 142.8 62.07 142.77 62.07 142.71 L 62.06 142.71 C 62.06 142.2 62.08 141.82 62.1 141.57 Z M 97.57 132.11 C 94.2 132.3 90.93 133.31 88.04 135.05 C 85.15 136.79 82.72 139.2 80.97 142.09 C 78.05 142.02 75.19 141.29 72.59 139.95 C 73.8 135.97 76.24 132.49 79.58 130.01 C 82.91 127.53 86.96 126.19 91.11 126.19 C 91.21 126.19 91.31 126.19 91.41 126.19 C 93.74 127.59 95.75 129.46 97.3 131.69 C 97.3 131.69 97.3 131.69 97.3 131.7 C 97.42 131.88 97.51 132.02 97.57 132.11 Z M 78.01 129.48 C 74.89 132.03 72.58 135.42 71.36 139.26 C 68.7 137.64 66.48 135.42 64.87 132.76 C 64.95 132.63 65.03 132.49 65.11 132.38 C 65.22 132.2 65.33 132.03 65.44 131.86 C 65.56 131.69 65.7 131.5 65.83 131.33 C 65.96 131.15 66.07 131 66.19 130.84 C 66.24 130.79 66.57 130.39 66.61 130.34 C 66.74 130.18 66.87 130.03 67 129.88 C 67.13 129.73 67.3 129.56 67.45 129.4 C 67.61 129.24 67.73 129.11 67.87 128.97 C 68.01 128.84 68.19 128.67 68.35 128.52 C 68.51 128.37 68.63 128.25 68.79 128.13 C 68.95 128.01 69.13 127.85 69.3 127.71 C 69.47 127.57 69.6 127.47 69.76 127.35 C 69.91 127.23 70.12 127.09 70.31 126.96 C 70.5 126.84 70.62 126.74 70.79 126.63 C 70.95 126.53 71.16 126.39 71.35 126.28 C 71.54 126.16 71.68 126.08 71.84 125.98 C 72.01 125.88 72.24 125.77 72.44 125.66 C 72.64 125.56 72.77 125.48 72.95 125.4 C 73.12 125.32 73.36 125.21 73.57 125.12 C 73.77 125.04 73.9 124.97 74.08 124.89 C 74.26 124.82 74.51 124.73 74.73 124.65 C 74.94 124.57 75.07 124.51 75.25 124.45 C 75.47 124.38 75.69 124.32 75.92 124.25 C 76.09 124.19 76.27 124.14 76.44 124.09 C 76.67 124.03 76.91 123.98 77.14 123.92 C 77.32 123.88 77.49 123.84 77.66 123.8 C 77.91 123.75 78.16 123.72 78.41 123.68 C 78.58 123.65 78.74 123.62 78.91 123.6 C 79.18 123.56 79.46 123.53 79.76 123.51 C 79.89 123.51 80.03 123.48 80.17 123.47 C 80.59 123.44 81.01 123.43 81.44 123.43 C 84.02 123.42 86.57 123.94 88.94 124.94 C 88.94 124.94 88.94 124.94 88.93 124.93 C 83.73 126.27 80.09 127.79 78.01 129.48 Z M 94.8 146.04 C 93.98 142.22 92.09 138.7 89.36 135.91 C 92 134.45 94.93 133.61 97.94 133.47 C 97.99 133.47 98.34 133.46 98.39 133.46 C 100.53 137.36 101.27 141.88 100.47 146.26 C 99.67 150.63 97.38 154.6 93.99 157.49 C 93.99 157.49 93.99 157.5 93.99 157.5 C 95.08 152.41 95.34 148.58 94.8 146.04 Z"
        fill="#ffffff"/>
    <path
        id="path_16"
        d="M 315.33 155.03 C 317.92 158.6 321.57 161.25 325.76 162.61 C 329.94 163.97 334.46 163.97 338.64 162.61 C 342.83 161.25 346.49 158.6 349.07 155.03 C 351.66 151.47 353.06 147.18 353.06 142.78 C 353.06 138.37 351.66 134.08 349.07 130.52 C 346.49 126.96 342.83 124.3 338.64 122.94 C 334.46 121.58 329.94 121.58 325.76 122.94 C 321.57 124.3 317.92 126.96 315.33 130.52 C 312.74 134.08 311.35 138.37 311.35 142.78 C 311.35 147.18 312.74 151.47 315.33 155.03 Z"
        fill="#ff6200"/>
    <path
        id="path_17"
        d="M 323.32 123.9 C 320.54 125.2 318.08 127.11 316.12 129.47 C 314.17 131.84 312.76 134.61 312 137.58 C 311.23 140.56 311.14 143.66 311.72 146.68 C 311.71 146.69 311.64 146.76 311.64 146.77 C 311.67 146.81 311.71 146.83 311.75 146.86 C 312.52 150.73 314.38 154.31 317.11 157.17 C 319.83 160.03 323.32 162.05 327.15 163.01 C 330.98 163.97 335.01 163.81 338.76 162.57 C 342.51 161.33 345.83 159.05 348.33 155.99 C 350.83 152.94 352.42 149.24 352.9 145.32 C 353.38 141.4 352.74 137.42 351.05 133.85 C 349.36 130.28 346.69 127.26 343.35 125.15 C 340.01 123.04 336.14 121.92 332.19 121.92 C 332.19 121.92 332.19 121.92 332.2 121.92 C 328.13 122.37 325.17 123.03 323.32 123.9 Z M 341.36 143.97 C 343.48 136.68 342.88 129.68 342.41 126.51 C 345.79 128.64 348.43 131.77 349.96 135.46 C 349.93 142.22 343.88 143.66 341.36 143.97 Z M 339.67 143.88 C 334.78 142.59 334.09 139.03 333.16 134.18 C 332.54 130.9 331.83 127.22 329.58 123.74 C 330.44 123.62 331.31 123.56 332.18 123.56 C 335.09 123.56 337.97 124.22 340.58 125.49 C 340.58 125.49 340.58 125.49 340.57 125.49 C 341.68 132.12 341.38 138.25 339.67 143.88 Z M 331.56 134.49 C 332.47 139.3 333.35 143.86 339.15 145.44 C 338.72 146.65 338.2 147.82 337.61 148.96 C 325.58 143.13 318.19 133.77 316.58 131.59 C 319.3 127.8 323.3 125.13 327.83 124.07 C 327.83 124.07 327.83 124.07 327.82 124.07 C 329.89 128.81 331.14 132.28 331.56 134.49 Z M 336.81 150.39 C 336.35 151.16 335.85 151.9 335.31 152.61 C 332.15 151.04 329.17 150.8 326.29 150.56 C 322.31 150.24 318.19 149.89 313.24 145.97 C 313.06 144.92 312.97 143.85 312.97 142.78 C 312.97 139.35 313.89 135.99 315.64 133.04 C 315.64 133.04 315.64 133.04 315.63 133.04 C 322.04 140.85 329.1 146.63 336.81 150.39 Z M 326.16 152.2 C 328.9 152.42 331.51 152.64 334.26 153.93 C 331.8 156.78 328.77 159.1 325.38 160.74 C 322.64 159.7 320.19 158.05 318.19 155.92 C 316.18 153.79 314.69 151.23 313.83 148.44 C 318.44 151.56 322.36 151.89 326.16 152.2 Z M 335.77 154.68 C 336.65 155.17 338.38 156.3 338.81 157.93 C 339.09 158.9 338.84 159.95 338.11 161.04 C 334.7 162.15 331.05 162.28 327.57 161.42 C 327.57 161.42 327.58 161.42 327.58 161.42 C 331.52 158.75 334.25 156.51 335.77 154.68 Z M 340.4 157.49 C 339.83 155.42 337.94 154.04 336.81 153.38 C 337.36 152.62 337.86 151.86 338.32 151.08 C 341.31 152.43 344.44 153.47 347.64 154.2 C 345.74 156.76 343.23 158.81 340.34 160.17 C 340.34 160.17 340.35 160.17 340.35 160.16 C 340.54 158.97 340.56 158.08 340.4 157.49 Z M 339.12 149.65 C 339.79 148.36 340.36 147.03 340.83 145.66 C 342.27 145.56 346.31 145.02 349.03 142.24 C 349.94 141.31 350.63 140.2 351.05 138.97 C 352 143.7 351.14 148.62 348.63 152.75 C 345.36 152.05 342.17 151.02 339.12 149.65 Z"
        fill="#ffffff"/>
    <path
        id="path_18"
        d="M 131 101.84 C 133.5 105.32 137.05 107.92 141.12 109.25 C 145.2 110.58 149.59 110.58 153.67 109.25 C 157.75 107.92 161.29 105.32 163.79 101.84 C 166.29 98.35 167.62 94.16 167.57 89.87 C 167.62 85.58 166.29 81.39 163.79 77.91 C 161.29 74.42 157.75 71.82 153.67 70.49 C 149.59 69.16 145.2 69.16 141.12 70.49 C 137.05 71.82 133.5 74.42 131 77.91 C 128.5 81.39 127.18 85.58 127.22 89.87 C 127.18 94.16 128.5 98.35 131 101.84 Z"
        fill="#caee16"/>
    <path
        id="path_19"
        d="M 146.13 69.06 C 145.96 69.01 145.77 69.02 145.61 69.1 C 145.24 69.13 144.86 69.17 144.48 69.23 C 139.91 69.87 135.69 72.02 132.47 75.32 C 129.25 78.63 127.21 82.91 126.68 87.5 C 126.62 87.64 126.6 87.81 126.63 87.97 C 126.37 90.85 126.72 93.75 127.64 96.5 C 128.56 99.24 130.05 101.76 131.99 103.9 C 133.94 106.04 136.31 107.75 138.96 108.92 C 141.6 110.1 144.46 110.71 147.35 110.72 C 147.61 110.72 147.87 110.72 148.14 110.71 C 148.15 110.71 148.25 110.71 148.26 110.71 C 148.95 110.68 149.63 110.62 150.32 110.52 C 154.4 109.94 158.22 108.16 161.3 105.41 C 164.37 102.66 166.56 99.06 167.58 95.07 C 168.61 91.08 168.43 86.87 167.07 82.98 C 165.7 79.09 163.22 75.69 159.92 73.21 C 159.92 73.21 159.93 73.21 159.94 73.2 C 154.04 70.23 149.43 68.85 146.13 69.06 Z M 137.57 73.21 C 139.76 71.92 142.18 71.07 144.7 70.73 C 144.75 70.72 145.15 70.67 145.2 70.66 C 145.21 72.82 144.8 74.96 143.98 76.96 C 143.16 78.96 141.95 80.78 140.43 82.31 C 138.91 83.83 137.09 85.05 135.1 85.87 C 133.1 86.7 130.96 87.12 128.8 87.12 C 128.75 87.12 128.32 87.12 128.27 87.12 C 128.73 83.9 130 80.85 131.95 78.26 C 133.47 76.22 135.38 74.51 137.57 73.21 Z M 128.11 88.6 C 128.34 88.6 128.57 88.62 128.8 88.62 C 131.17 88.62 133.52 88.16 135.7 87.25 C 137.89 86.34 139.88 85.01 141.54 83.33 C 143.21 81.65 144.53 79.65 145.42 77.46 C 146.31 75.26 146.75 72.91 146.72 70.54 C 146.97 70.54 147.21 70.53 147.46 70.53 C 150.04 70.54 152.6 71.06 154.97 72.07 C 157.35 73.08 159.5 74.56 161.3 76.41 C 163.1 78.27 164.5 80.46 165.44 82.87 C 166.37 85.28 166.82 87.85 166.75 90.43 C 164.19 90.21 161.62 90.53 159.21 91.39 C 156.8 92.25 154.6 93.62 152.77 95.4 C 150.91 97.17 149.47 99.32 148.54 101.71 C 147.6 104.1 147.21 106.66 147.37 109.21 C 142.72 109.2 138.23 107.52 134.72 104.46 C 131.21 101.41 128.92 97.19 128.27 92.59 C 128.08 91.27 128.03 89.93 128.11 88.6 Z M 157.25 106.52 C 155.07 107.81 152.64 108.66 150.13 109.01 C 149.71 109.06 149.3 109.11 148.88 109.14 C 148.73 106.8 149.1 104.46 149.95 102.28 C 150.8 100.09 152.12 98.13 153.81 96.51 C 155.5 94.87 157.52 93.61 159.73 92.82 C 161.94 92.04 164.3 91.74 166.65 91.95 C 166.27 95.41 164.97 98.7 162.87 101.48 C 161.35 103.51 159.44 105.23 157.25 106.52 Z"
        fill="#ffffff"/>
    <path
        id="path_20"
        d="M 233.93 89.94 C 233.93 84.39 236.14 79.07 240.06 75.14 C 243.98 71.22 249.31 69.02 254.86 69.02 C 260.4 69.02 265.73 71.22 269.65 75.14 C 273.57 79.07 275.78 84.39 275.78 89.94 C 275.78 95.48 273.57 100.81 269.65 104.73 C 265.73 108.66 260.4 110.86 254.86 110.86 C 249.31 110.86 243.98 108.66 240.06 104.73 C 236.14 100.81 233.93 95.48 233.93 89.94"
        fill="#ffffff"/>
    <path
        id="path_21"
        d="M 236.01 80.86 C 233.75 85.54 233.32 90.9 234.8 95.89 C 236.27 100.87 239.56 105.13 244.01 107.83 C 248.45 110.52 253.74 111.47 258.85 110.47 C 263.96 109.48 268.51 106.62 271.62 102.45 C 274.73 98.28 276.18 93.11 275.68 87.93 C 275.18 82.75 272.77 77.95 268.92 74.45 C 265.07 70.95 260.06 69.02 254.85 69.02 C 252.16 69.01 249.5 69.53 247.01 70.54 C 242.19 72.49 238.26 76.17 236.01 80.86 Z M 236.46 96.44 C 235.22 92.93 234.99 89.12 235.83 85.49 C 236.22 84.72 236.66 83.98 237.16 83.28 C 237.32 83.06 237.46 82.83 237.63 82.62 C 237.94 82.81 239.51 83.73 242.32 85.4 C 242.32 85.47 242.32 85.51 242.32 85.52 C 242.31 88.05 242.57 90.57 243.08 93.04 C 243.08 93.05 243.08 93.06 243.08 93.07 C 242.72 93.64 239.8 98.22 239.43 98.79 C 239.37 98.74 239.29 98.7 239.21 98.65 C 238.21 98.03 237.28 97.29 236.46 96.44 Z M 255.71 109.37 C 252.01 109.53 248.34 108.65 245.13 106.81 C 245.92 106.95 252.23 108.07 253.02 108.21 C 253.08 108.25 253.14 108.29 253.2 108.32 C 253.2 108.32 253.2 108.32 253.2 108.32 C 254.3 108.83 255.14 109.18 255.71 109.37 Z M 243.86 105.24 C 242.77 103.92 241.8 102.51 240.95 101.02 C 240.74 100.64 240.5 100.27 240.32 99.87 C 240.56 99.49 241.78 97.59 243.96 94.16 C 244.13 94.2 244.22 94.22 244.24 94.23 C 246.53 94.82 248.84 95.28 251.18 95.61 C 251.21 95.61 251.32 95.63 251.53 95.65 C 254.15 100.19 255.61 102.71 255.9 103.21 C 255.14 104.28 254.38 105.34 253.59 106.39 C 253.46 106.57 253.33 106.73 253.18 106.9 C 253.18 106.9 253.18 106.9 253.18 106.9 C 247.59 105.9 244.49 105.35 243.86 105.24 Z M 266.32 105.7 C 266.18 104.61 265.94 103.54 265.61 102.49 C 266.08 101.62 269.81 94.66 270.27 93.79 C 271.56 93.22 272.79 92.53 273.95 91.72 C 274.09 91.62 274.22 91.5 274.32 91.36 C 273.98 96.02 271.97 100.39 268.67 103.69 C 267.94 104.42 267.15 105.09 266.32 105.7 Z M 268.97 93.41 C 268.67 93.97 267.17 96.77 264.47 101.81 C 264.42 101.82 264.4 101.83 264.39 101.83 C 261.96 102.29 259.5 102.52 257.03 102.54 C 256.58 101.76 252.98 95.54 252.53 94.77 C 253.23 93.46 253.93 92.16 254.61 90.86 C 255.08 89.97 255.54 89.08 256 88.19 C 256.93 88.09 264.37 87.33 265.3 87.24 C 266.45 88.89 267.51 90.62 268.46 92.4 C 268.46 92.4 268.46 92.4 268.46 92.41 C 268.69 92.85 268.86 93.19 268.97 93.41 Z M 265.19 85.89 C 264.28 85.99 257.03 86.75 256.12 86.84 C 256.02 86.7 255.9 86.56 255.78 86.42 C 254.72 85.21 253.64 84 252.56 82.8 C 252.56 82.8 252.57 82.79 252.59 82.77 L 251.29 81.47 C 252.8 76.91 253.64 74.38 253.81 73.87 C 253.99 73.82 254.16 73.78 254.34 73.76 C 255.72 73.63 257.08 73.47 258.46 73.39 C 259.31 73.33 260.16 73.32 261 73.37 C 261.63 74.08 266.62 79.71 267.25 80.41 C 267.03 81.09 266.82 81.77 266.57 82.42 C 266.13 83.59 265.66 84.74 265.19 85.89 Z M 272.67 81.87 C 271.5 81.07 270.25 80.4 268.94 79.87 C 268.73 79.78 268.53 79.71 268.32 79.64 C 267.7 78.94 262.79 73.39 262.17 72.69 C 262.22 72.39 262.24 72.09 262.25 71.79 C 264.65 72.77 266.83 74.23 268.67 76.07 C 270.34 77.74 271.7 79.71 272.67 81.87 Z M 248.65 71.47 C 250.03 71.97 251.34 72.66 252.54 73.52 C 252.38 73.99 251.59 76.36 250.18 80.62 C 250.16 80.62 250.15 80.62 250.14 80.62 C 249.66 80.82 249.17 81 248.69 81.21 C 246.73 82.08 244.84 83.1 243.03 84.27 C 242.57 83.99 238.85 81.78 238.38 81.5 C 238.39 81.36 238.41 81.22 238.46 81.08 C 238.77 80.25 239.08 79.42 239.44 78.59 C 239.71 77.97 240.02 77.36 240.36 76.76 C 240.58 76.52 240.81 76.28 241.04 76.04 C 243.18 73.9 245.78 72.3 248.64 71.34 C 248.63 71.37 248.61 71.4 248.6 71.43 C 248.6 71.43 248.6 71.43 248.6 71.43 C 248.62 71.46 248.64 71.47 248.65 71.47 Z"
        fill="#000000"/>
</svg>
