<svg width="39" height="39" xmlns="http://www.w3.org/2000/svg">

 <g>
  <title>background</title>
  <rect fill="none" id="canvas_background" height="402" width="582" y="-1" x="-1"/>
 </g>
 <g>
  <title>Layer 1</title>
  <path fill-opacity="0.3" fill="#021004" d="m19.5,0c-5.17,0 -10.133,2.056 -13.789,5.711c-3.655,3.656 -5.711,8.619 -5.711,13.789c0,5.17 2.056,10.133 5.711,13.789c3.656,3.655 8.619,5.711 13.789,5.711c5.17,0 10.133,-2.056 13.789,-5.711c3.655,-3.656 5.711,-8.619 5.711,-13.789c0,-5.17 -2.056,-10.133 -5.711,-13.789c-3.656,-3.655 -8.619,-5.711 -13.789,-5.711z" id="path_1"/>
  <g id="svg_7">
   <path fill="#ffffff" d="m24.323845,19.042924l-8.543742,0l2.038562,-2.039223c0.178242,-0.178242 0.178242,-0.468051 0,-0.646293c-0.178902,-0.178902 -0.468051,-0.178902 -0.646293,0l-2.819527,2.819527c-0.178902,0.178242 -0.178902,0.468051 0,0.646293l2.819527,2.819527c0.089121,0.089121 0.205969,0.134012 0.322816,0.134012c0.117508,0 0.234355,-0.044891 0.323477,-0.134012c0.178242,-0.178242 0.178242,-0.468051 0,-0.646293l-2.038562,-2.039223l8.543742,0c0.25284,0 0.457488,-0.204648 0.457488,-0.457488c0,-0.25218 -0.204648,-0.456828 -0.457488,-0.456828z" id="svg_5"/>
  </g>
 </g>
</svg>