<svg width="177" height="163" viewBox="0 0 177 163" fill="none" xmlns="http://www.w3.org/2000/svg">
<g filter="url(#filter0_d)">
<g clip-path="url(#clip0)">
<path d="M8.32041 73.5865C20.0671 65.165 35.6973 60.5258 50.0535 60.2059C74.6237 59.6622 97.5493 71.5248 117.186 85.2053C123.839 89.8405 130.526 94.6463 138.395 96.9826C143.278 98.434 148.881 99.0697 154.002 98.5592C159.027 98.0581 164.584 95.6659 166.61 90.7055C171.26 79.3146 157.531 74.093 148.902 73.1401C143.962 72.5963 138.952 72.7896 134.021 73.332C132.769 73.4653 121.012 75.5483 120.98 75.4244C120.707 74.3435 135.128 71.1863 136.588 70.9144C142.418 69.8282 148.468 69.2232 154.376 69.9815C161.941 70.9437 170.76 74.7953 173.082 82.889C175.133 90.0364 171.648 97.4571 166.308 102.18C160.288 107.505 153.077 108.436 145.302 108.258C127.325 107.843 113.529 96.9906 97.9292 89.5353C81.2954 81.5856 60.3968 75.6949 42.1424 81.1831C35.768 83.0996 29.8307 86.0369 24.032 89.3128C20.8734 91.0986 19.6739 92.4313 16.7486 92.5579C5.28445 93.0497 -0.78347 80.5834 8.32041 73.5865Z" fill="#2F80ED"/>
<path d="M26.9695 110.217C29.1338 108.322 31.3888 106.462 33.8104 104.734C36.2618 102.962 38.8634 101.407 41.5855 100.088C44.3691 98.7485 47.2984 97.7356 50.3149 97.0694C53.3057 96.4231 56.359 96.1102 59.4188 96.1365C62.3962 96.1661 65.3659 96.4469 68.2961 96.9761C71.1555 97.4916 73.9826 98.1729 76.7629 99.0165C77.4533 99.2231 78.1356 99.439 78.8193 99.6602L79.8455 100.003C80.188 100.117 80.5252 100.241 80.865 100.36C82.2204 100.842 83.5612 101.35 84.8819 101.893C87.5287 102.971 90.1089 104.158 92.6424 105.391C97.7067 107.869 102.586 110.573 107.444 113.206C109.872 114.523 112.297 115.824 114.739 117.071C115.96 117.693 117.185 118.302 118.415 118.897C119.644 119.492 120.88 120.061 122.122 120.603C124.6 121.696 127.132 122.661 129.71 123.493C132.271 124.318 134.891 124.949 137.547 125.382C140.197 125.807 142.881 125.967 145.562 125.86C148.253 125.743 150.924 125.341 153.529 124.661C153.657 124.624 153.79 124.612 153.922 124.627C154.054 124.641 154.182 124.682 154.298 124.746C154.414 124.81 154.517 124.896 154.6 124.999C154.683 125.103 154.745 125.222 154.782 125.349C154.819 125.477 154.83 125.61 154.816 125.742C154.801 125.874 154.761 126.002 154.697 126.118C154.633 126.234 154.547 126.337 154.443 126.42C154.339 126.503 154.221 126.564 154.093 126.601C151.377 127.477 148.576 128.062 145.737 128.346C142.887 128.622 140.017 128.614 137.169 128.322C134.331 128.025 131.52 127.515 128.759 126.796C126.017 126.079 123.312 125.221 120.658 124.226C119.335 123.733 118.022 123.218 116.719 122.679C115.417 122.141 114.129 121.587 112.855 121.017C110.294 119.882 107.768 118.7 105.258 117.512C100.236 115.136 95.2745 112.733 90.2595 110.614C87.7526 109.556 85.2324 108.567 82.6949 107.693C81.4261 107.25 80.152 106.848 78.8739 106.469C78.5541 106.377 78.2356 106.28 77.9144 106.192L76.9535 105.925C76.3098 105.753 75.6621 105.587 75.0144 105.431C72.4533 104.8 69.8576 104.32 67.2406 103.992C64.6939 103.67 62.1246 103.564 59.56 103.674C57.075 103.784 54.6098 104.169 52.21 104.823C49.8417 105.483 47.5577 106.415 45.4038 107.601C41.0577 109.972 37.1102 113.331 33.3013 117.063C32.863 117.491 32.3447 117.829 31.7759 118.057C31.2072 118.285 30.5991 118.399 29.9864 118.392C29.3736 118.385 28.7683 118.257 28.2049 118.016C27.6416 117.775 27.1312 117.425 26.7029 116.987C26.2746 116.549 25.9369 116.031 25.7089 115.462C25.481 114.893 25.3673 114.285 25.3743 113.672C25.3814 113.059 25.5091 112.454 25.75 111.891C25.991 111.327 26.3406 110.817 26.7789 110.389C26.8362 110.333 26.8935 110.278 26.9535 110.226L26.9695 110.217Z" fill="#2F80ED"/>
<path d="M21.3533 96.2735C23.8433 94.0958 26.5397 92.1662 29.4044 90.5121C30.8259 89.6903 32.2791 88.9351 33.7637 88.2465C35.2484 87.5579 36.7588 86.9449 38.295 86.4073C41.3702 85.3185 44.5422 84.5255 47.768 84.0391C49.381 83.7943 51.0056 83.6328 52.6352 83.5553C54.2531 83.4762 55.8621 83.4696 57.4623 83.5353C63.8594 83.8019 70.0699 85.044 76.0232 86.8791C78.9922 87.7985 81.9132 88.8661 84.7753 90.0777C87.6246 91.2771 90.3981 92.6099 93.1155 94.0079C98.5544 96.8066 103.759 99.8719 108.982 102.777C114.205 105.683 119.461 108.477 124.933 110.716C127.655 111.847 130.443 112.811 133.283 113.602C134.698 113.991 136.127 114.328 137.565 114.604C139.003 114.88 140.453 115.085 141.907 115.221C144.808 115.507 147.733 115.444 150.619 115.032C153.497 114.612 156.301 113.788 158.948 112.583C159.211 112.462 159.511 112.45 159.782 112.55C160.054 112.65 160.274 112.854 160.396 113.117C160.517 113.379 160.529 113.679 160.429 113.951C160.329 114.222 160.125 114.443 159.863 114.564C158.452 115.218 157.001 115.78 155.518 116.246C154.034 116.709 152.52 117.071 150.987 117.328C149.456 117.587 147.91 117.754 146.359 117.826C145.584 117.861 144.809 117.878 144.035 117.87C143.261 117.862 142.486 117.841 141.715 117.793C140.17 117.701 138.634 117.527 137.109 117.297C135.584 117.068 134.07 116.775 132.578 116.426C129.591 115.722 126.647 114.849 123.759 113.812C120.878 112.781 118.047 111.633 115.263 110.402C112.479 109.17 109.741 107.86 107.025 106.529C101.597 103.863 96.2781 101.091 90.8805 98.6658C88.1844 97.4503 85.4656 96.3202 82.7189 95.322C79.9865 94.3278 77.2034 93.479 74.3813 92.7791C68.7599 91.3851 63.0131 90.5881 57.381 90.6801C55.9737 90.7041 54.5787 90.7889 53.1963 90.9346C51.8272 91.0778 50.4664 91.2918 49.1194 91.5757C46.4252 92.1525 43.7923 92.9853 41.2563 94.0625C36.184 96.2042 31.5194 99.2895 27.7238 103.089C27.2906 103.523 26.7763 103.867 26.2101 104.102C25.644 104.337 25.0371 104.458 24.4241 104.458C23.8112 104.459 23.2041 104.338 22.6377 104.104C22.0712 103.87 21.5565 103.526 21.1228 103.093C20.6891 102.66 20.345 102.146 20.11 101.579C19.8751 101.013 19.754 100.406 19.7537 99.7934C19.7533 99.1805 19.8737 98.5735 20.1079 98.007C20.3421 97.4406 20.6856 96.9258 21.1188 96.4921C21.1894 96.4215 21.2627 96.3588 21.336 96.2869L21.3533 96.2735Z" fill="#2F80ED"/>
<path d="M26.5854 102.805L26.599 102.791L26.5854 102.805Z" fill="#2F80ED"/>
<path d="M36.8994 124.563C35.2002 123.897 46.655 109.504 61.8548 109.488C84.5112 109.46 108.492 127.717 109.766 127.643C109.765 127.643 64.9201 130.577 36.8994 124.563Z" fill="#2F80ED"/>
<path d="M117.878 80.8008C119.982 82.1669 132.138 94.3387 146.649 95.169C152.638 95.5115 163.109 95.117 164.086 87.5724C165.363 77.6649 151.064 76.0896 144.207 75.9697C135.247 75.8191 126.106 77.1211 117.878 80.8008Z" fill="#2F80ED"/>
<path d="M68.2093 151.362H63.9872L63.2515 156H60.3728L63.9232 135.977H68.1186L71.9196 156H69.0089L68.2093 151.362ZM67.8254 149.027L66.0023 138.472L64.339 149.027H67.8254Z" fill="#2F80ED"/>
<path d="M78.4128 147.908H76.8455V156H73.9668V135.977H80.5238C82.6029 135.977 83.4985 136.969 83.4985 138.792V145.056C83.4985 146.655 82.8588 147.588 81.3554 147.838L84.522 155.995H81.4194L78.4128 147.908ZM76.8455 145.605H79.6602C80.4279 145.605 80.6198 145.445 80.6198 144.672V139.234C80.6198 138.467 80.4279 138.301 79.6602 138.301H76.8455V145.605Z" fill="#2F80ED"/>
<path d="M95.3332 153.665V156H86.6332V135.977H95.1093V138.312H89.5439V144.485H94.1498V146.82H89.5439V153.665H95.3332Z" fill="#2F80ED"/>
<path d="M107.392 135.977V156H104.481L100.259 141.543V156H97.604V135.977H100.637L104.731 150.019V135.977H107.392Z" fill="#2F80ED"/>
<path d="M117.274 151.362H113.052L112.316 156H109.433L112.984 135.977H117.174L120.984 156H118.073L117.274 151.362ZM116.89 149.027L115.067 138.472L113.404 149.027H116.89Z" fill="#2F80ED"/>
<path d="M58.1805 56.5969C58.1432 56.525 58.0872 56.425 58.0379 56.3304L57.8806 56.0559C57.774 55.8706 57.6634 55.6867 57.5528 55.5028C57.3262 55.1367 57.0934 54.7724 56.8544 54.4099C56.3746 53.6876 55.8682 52.9799 55.3351 52.2936C54.802 51.6072 54.2436 50.9395 53.6572 50.2945C53.0738 49.6486 52.4581 49.0326 51.8127 48.4487C50.5336 47.2665 49.103 46.2595 47.5586 45.454C46.7778 45.0626 45.9644 44.7398 45.1277 44.4891C44.2787 44.2566 43.4086 44.1097 42.5302 44.0507C42.4949 44.0507 42.461 44.0366 42.436 44.0116C42.411 43.9866 42.397 43.9527 42.397 43.9174C42.397 43.8821 42.411 43.8482 42.436 43.8232C42.461 43.7982 42.4949 43.7841 42.5302 43.7841C43.4405 43.7461 44.3523 43.8001 45.2517 43.9454C46.1551 44.1082 47.0426 44.3499 47.9038 44.6677C49.6241 45.3322 51.2484 46.2227 52.7336 47.3159C53.4839 47.8489 54.1996 48.4327 54.8913 49.0391C55.583 49.6455 56.2507 50.2812 56.8904 50.9422C57.5301 51.6032 58.1498 52.2869 58.7442 52.9946C59.0414 53.3491 59.3306 53.7089 59.6172 54.0754C59.7584 54.2593 59.901 54.4446 60.0396 54.6338L60.2489 54.919C60.3195 55.019 60.3822 55.1083 60.4621 55.2269L60.4794 55.2509C60.6765 55.5457 60.7484 55.9067 60.6793 56.2545C60.6102 56.6022 60.4057 56.9083 60.1109 57.1054C59.8162 57.3024 59.4552 57.3743 59.1074 57.3052C58.7596 57.2361 58.4535 57.0317 58.2565 56.7369C58.2325 56.6929 58.2031 56.6423 58.1805 56.5969Z" fill="#2F80ED"/>
<path d="M78.3806 57.3288L78.4046 57.1955L78.4312 57.0542L78.4792 56.761C78.5112 56.5651 78.5405 56.3612 78.5685 56.1653C78.6232 55.7655 78.6725 55.3656 78.7151 54.9565C78.7964 54.1462 78.8657 53.3306 78.903 52.5109C78.9897 50.8743 78.9897 49.2271 78.9164 47.5798C78.769 44.2796 78.3048 41.0011 77.5303 37.7896C77.1305 36.1823 76.6521 34.5911 76.1043 33.0318C75.8084 32.2574 75.5326 31.4738 75.1967 30.7155L74.9542 30.1411L74.8329 29.8532L74.6996 29.572L74.1665 28.4432C73.4362 26.9459 72.6215 25.4914 71.7263 24.0865C70.8294 22.6756 69.8569 21.3142 68.813 20.0083C68.7931 19.9809 68.7844 19.9469 68.7887 19.9132C68.793 19.8796 68.8099 19.8489 68.8361 19.8273C68.8622 19.8057 68.8956 19.7949 68.9295 19.7971C68.9633 19.7993 68.995 19.8143 69.0182 19.8391C70.1476 21.0924 71.2091 22.4052 72.1981 23.772C73.1909 25.1431 74.1048 26.5697 74.9355 28.0447L75.5446 29.1615L75.6952 29.4414L75.8364 29.7266L76.119 30.297C76.5081 31.0527 76.8373 31.835 77.1852 32.6093C77.8409 34.1779 78.4326 35.7759 78.9377 37.4071C79.9348 40.6764 80.6158 44.0338 80.9714 47.4332C81.15 49.1351 81.2513 50.8477 81.2633 52.5656C81.2753 53.4252 81.254 54.2861 81.218 55.1497C81.198 55.5815 81.1727 56.0134 81.138 56.4478C81.122 56.6651 81.1034 56.8836 81.0807 57.1022L81.0461 57.434L81.0247 57.6033L81.0007 57.7859C80.9777 57.9595 80.9207 58.1269 80.833 58.2785C80.7453 58.4301 80.6286 58.5629 80.4896 58.6694C80.3506 58.7759 80.1919 58.8539 80.0227 58.8991C79.8535 58.9443 79.677 58.9557 79.5034 58.9327C79.3298 58.9097 79.1624 58.8527 79.0108 58.765C78.8592 58.6773 78.7264 58.5606 78.6199 58.4215C78.5134 58.2825 78.4354 58.1238 78.3902 57.9546C78.345 57.7854 78.3336 57.609 78.3566 57.4354L78.3686 57.3621L78.3806 57.3288Z" fill="#2F80ED"/>
<path d="M101.192 65.7478C101.155 65.4999 101.129 65.2894 101.101 65.0628C101.073 64.8362 101.049 64.6203 101.028 64.3964C100.981 63.9553 100.943 63.5155 100.909 63.0757C100.837 62.1974 100.795 61.3192 100.76 60.4422C100.7 58.6884 100.707 56.9358 100.783 55.1846C100.858 53.4334 101.004 51.6897 101.22 49.9536C101.441 48.2166 101.741 46.4939 102.118 44.7853C102.493 43.0782 102.962 41.3933 103.524 39.7383C104.078 38.0827 104.739 36.4649 105.503 34.8951C105.698 34.506 105.887 34.1128 106.087 33.7263L106.724 32.5855C106.927 32.2003 107.171 31.8378 107.398 31.4673L107.744 30.9143C107.802 30.8236 107.857 30.729 107.92 30.6397L108.106 30.3732L108.855 29.307L108.948 29.1737L109.05 29.0404L109.252 28.7846L109.652 28.2728L110.052 27.7637C110.185 27.5958 110.338 27.4372 110.481 27.2746L111.343 26.303C111.366 26.2758 111.398 26.2587 111.434 26.2554C111.469 26.2522 111.504 26.2631 111.531 26.2857C111.558 26.3083 111.576 26.3408 111.579 26.3761C111.582 26.4113 111.571 26.4464 111.549 26.4736V26.4803L110.749 27.4905C110.616 27.6597 110.482 27.8237 110.349 27.9969L109.981 28.53L109.613 29.0551L109.43 29.3216L109.338 29.4549L109.252 29.5882L108.578 30.6784L108.409 30.9449C108.353 31.0369 108.305 31.1328 108.253 31.2261L107.945 31.7872C107.742 32.1644 107.525 32.5309 107.348 32.92L106.791 34.0715C106.616 34.4607 106.455 34.8565 106.286 35.247C105.63 36.8193 105.078 38.4327 104.633 40.0768C104.18 41.716 103.819 43.3791 103.551 45.0585C103.284 46.7378 103.091 48.4259 102.971 50.1229C102.851 51.8199 102.807 53.5165 102.838 55.2126C102.864 56.9096 102.955 58.6017 103.111 60.289C103.192 61.1312 103.283 61.9722 103.399 62.8065C103.456 63.2236 103.518 63.6394 103.586 64.0526C103.618 64.2605 103.655 64.4644 103.689 64.6696C103.724 64.8749 103.767 65.0841 103.804 65.2614C103.84 65.4326 103.842 65.6093 103.81 65.7814C103.778 65.9535 103.713 66.1176 103.617 66.2643C103.522 66.411 103.398 66.5375 103.254 66.6365C103.11 66.7355 102.947 66.8051 102.776 66.8413C102.605 66.8776 102.428 66.8797 102.256 66.8476C102.084 66.8156 101.92 66.7499 101.773 66.6544C101.626 66.559 101.5 66.4355 101.401 66.2912C101.302 66.1468 101.232 65.9844 101.196 65.8131C101.201 65.8011 101.196 65.7745 101.192 65.7478Z" fill="#2F80ED"/>
<path d="M125.199 67.5803C125.294 67.2671 125.385 66.9832 125.479 66.6887L125.77 65.8171C125.966 65.2373 126.17 64.6629 126.378 64.0845C126.796 62.9393 127.24 61.8042 127.71 60.6794C128.637 58.4259 129.687 56.2249 130.856 54.0864C132.036 51.954 133.358 49.8856 134.958 48.0291C135.752 47.0931 136.64 46.2418 137.61 45.4889C138.575 44.7259 139.673 44.1484 140.848 43.7857C140.882 43.7744 140.919 43.7769 140.95 43.7926C140.982 43.8083 141.006 43.8361 141.018 43.8696C141.029 43.9032 141.026 43.9399 141.011 43.9717C140.995 44.0034 140.967 44.0276 140.934 44.0389C139.838 44.479 138.834 45.1184 137.971 45.9247C137.104 46.7232 136.321 47.6093 135.636 48.5689C134.249 50.4787 133.138 52.583 132.171 54.7421C131.211 56.9117 130.371 59.1322 129.653 61.3937C129.292 62.523 128.955 63.6598 128.642 64.8042C128.486 65.3746 128.337 65.9468 128.193 66.5207L127.985 67.3804C127.918 67.6642 127.852 67.9601 127.796 68.228C127.723 68.5742 127.516 68.8775 127.221 69.0712C126.925 69.2649 126.564 69.3331 126.218 69.2608C125.871 69.1886 125.568 68.9817 125.374 68.6858C125.181 68.3899 125.112 68.0291 125.185 67.6829C125.179 67.6536 125.19 67.6149 125.199 67.5803Z" fill="#2F80ED"/>
<ellipse cx="30.3512" cy="35.5954" rx="10.0084" ry="10.0125" fill="#2F80ED"/>
<path d="M40.3457 34.9302C40.3297 34.6903 40.303 34.4504 40.2697 34.2132C40.1246 33.1524 39.8096 32.1219 39.3368 31.1612C39.2409 30.9666 39.1369 30.7734 39.0276 30.5855C38.8864 30.3389 38.7331 30.1004 38.5612 29.8565C37.5965 28.4767 36.2993 27.3626 34.7897 26.6172C33.2801 25.8719 31.6069 25.5193 29.9249 25.5923C28.2429 25.6652 26.6065 26.1613 25.1671 27.0345C23.7277 27.9078 22.5318 29.13 21.6902 30.5882C21.6635 30.6335 21.6408 30.6814 21.6155 30.7214C21.5729 30.7987 21.5302 30.8747 21.4823 30.9533C21.4757 30.9614 21.4703 30.9704 21.4663 30.98C21.4516 31.008 21.4383 31.0386 21.4236 31.0666C21.3796 31.1532 21.3383 31.2425 21.297 31.3332C21.2557 31.4238 21.201 31.5384 21.1557 31.6437C21.1104 31.749 21.0824 31.8196 21.0478 31.9102C21.0131 32.0008 20.9665 32.1221 20.9278 32.2274C20.8892 32.3327 20.8639 32.4127 20.8332 32.506C20.8026 32.5992 20.7692 32.7139 20.7386 32.8191C20.7079 32.9244 20.6826 33.0151 20.6573 33.1137C20.632 33.2123 20.6093 33.3189 20.5853 33.4229C20.5613 33.5268 20.54 33.6254 20.5214 33.7281C20.5027 33.8307 20.4854 33.9386 20.4694 34.0453C20.4534 34.1519 20.4347 34.2452 20.4241 34.3451C20.4134 34.4451 20.3987 34.585 20.3881 34.7036C20.3801 34.7916 20.3694 34.8795 20.3641 34.9702C20.3508 35.1674 20.3441 35.37 20.3428 35.5606V35.6112C20.3428 35.8045 20.3428 35.995 20.3601 36.1843C20.3601 36.2256 20.3601 36.2669 20.3694 36.3082C20.3814 36.4722 20.3974 36.6348 20.4161 36.796C20.4161 36.812 20.4161 36.8293 20.4161 36.8453C20.4161 36.8613 20.4241 36.896 20.4267 36.9226C20.4414 37.0279 20.4561 37.1332 20.4734 37.2385L20.5094 37.4384C20.5254 37.521 20.54 37.6036 20.5573 37.6849C20.5747 37.7662 20.6013 37.8782 20.624 37.9728C20.6373 38.0248 20.6493 38.0754 20.6626 38.1274C20.6986 38.2607 20.7386 38.4073 20.7812 38.5459V38.5645C21.2368 40.0264 22.0212 41.3645 23.0742 42.4761C24.1272 43.5878 25.4208 44.4435 26.8558 44.9776L26.9038 44.995C27.0371 45.0443 27.1703 45.0896 27.3036 45.1282L27.3782 45.1522C27.5115 45.1922 27.6368 45.2295 27.7674 45.2642L27.8474 45.2855C27.9806 45.3188 28.1139 45.3508 28.2472 45.3801L28.3165 45.3948C28.4604 45.4241 28.6044 45.4508 28.751 45.4734L28.7923 45.4814C29.1938 45.5443 29.5988 45.5825 30.0051 45.596V45.604H30.1383H30.1543C30.2103 45.604 30.2663 45.604 30.3209 45.604H30.3449C30.3563 45.6067 30.3682 45.6067 30.3796 45.604H30.3929C30.5062 45.604 30.6181 45.604 30.7234 45.5934C33.3093 45.4952 35.7568 44.3993 37.5523 42.5358C39.3477 40.6722 40.3518 38.1857 40.3537 35.5979C40.367 35.37 40.359 35.1501 40.3457 34.9302ZM21.413 38.282C21.3903 38.2047 21.3703 38.1274 21.349 38.0474C22.5868 39.3914 24.1703 40.369 25.9264 40.8735C27.6825 41.3779 29.5435 41.3897 31.3058 40.9075C31.2337 42.3155 30.8446 43.689 30.1676 44.9257C28.2054 44.8821 26.3065 44.2233 24.739 43.0422C23.1714 41.8611 22.0145 40.2174 21.4316 38.3433C21.4249 38.318 21.4196 38.302 21.413 38.282ZM33.9753 26.9778C32.044 27.1831 30.2142 27.9457 28.7087 29.1726C27.2033 30.3996 26.0872 32.0379 25.4964 33.888C24.2173 33.1095 23.1438 32.0355 22.3659 30.7561C22.4032 30.6921 22.4432 30.6228 22.4831 30.5682C22.5364 30.4842 22.5884 30.4016 22.6444 30.3189C22.7004 30.2363 22.767 30.147 22.8296 30.0617C22.8923 29.9764 22.9456 29.9045 23.0056 29.8272L23.2055 29.5833C23.2681 29.51 23.3307 29.4353 23.3947 29.3634C23.4587 29.2914 23.54 29.2088 23.6133 29.1328C23.6866 29.0568 23.7466 28.9929 23.8132 28.9262C23.8798 28.8596 23.9678 28.781 24.0464 28.709C24.1251 28.637 24.1797 28.5757 24.257 28.5184C24.3343 28.4611 24.4223 28.3852 24.5049 28.3172C24.5875 28.2492 24.6502 28.1986 24.7248 28.1426C24.7994 28.0866 24.898 28.0173 24.9913 27.956C25.0846 27.8947 25.1433 27.8467 25.2206 27.7961C25.2979 27.7454 25.4031 27.6815 25.4951 27.6255C25.5871 27.5695 25.651 27.5282 25.7323 27.4816C25.8136 27.4349 25.9229 27.3789 26.0189 27.3283C26.1148 27.2776 26.1801 27.2417 26.2628 27.2017C26.3454 27.1617 26.4627 27.1097 26.5626 27.0684C26.6626 27.0271 26.7265 26.9924 26.8105 26.9578C26.8945 26.9231 27.0184 26.8778 27.1224 26.8392C27.2263 26.8005 27.289 26.7739 27.3743 26.7459C27.4809 26.7099 27.5888 26.6793 27.6981 26.6459C27.7821 26.6206 27.8647 26.5926 27.9513 26.57C28.0619 26.5393 28.1752 26.5153 28.2885 26.49C28.3725 26.47 28.4564 26.4487 28.5391 26.4314C28.659 26.4074 28.7803 26.3901 28.9016 26.3714C28.9802 26.3581 29.0588 26.3421 29.1388 26.3314C29.2721 26.3141 29.4053 26.3021 29.5493 26.2901C29.6159 26.2901 29.6825 26.2754 29.7465 26.2714C29.9504 26.2581 30.1543 26.2515 30.3609 26.2515C31.6043 26.2475 32.8356 26.4955 33.9806 26.9805L33.9753 26.9778ZM36.4195 42.6907C37.0674 40.9201 37.2013 39.0025 36.8059 37.1591C36.4104 35.3157 35.5016 33.6217 34.1845 32.2727C35.4549 31.5662 36.8718 31.1638 38.3239 31.0973L38.5385 31.0906C39.5735 32.9721 39.9277 35.153 39.5414 37.2653C39.1552 39.3776 38.052 41.292 36.4181 42.6854L36.4195 42.6907Z" fill="#FFD80B"/>
<path d="M40.3457 34.9325C40.3297 34.6926 40.303 34.4527 40.2697 34.2155C40.1246 33.1547 39.8096 32.1242 39.3368 31.1635C39.2409 30.969 39.1369 30.7757 39.0276 30.5878C38.8864 30.3412 38.7331 30.1027 38.5612 29.8588C37.5965 28.479 36.2993 27.3649 34.7897 26.6195C33.2801 25.8742 31.6069 25.5216 29.9249 25.5946C28.2429 25.6675 26.6065 26.1636 25.1671 27.0368C23.7277 27.9101 22.5318 29.1324 21.6902 30.5905C21.6635 30.6358 21.6408 30.6837 21.6155 30.7237C21.5729 30.801 21.5302 30.877 21.4823 30.9556C21.4757 30.9637 21.4703 30.9727 21.4663 30.9823C21.4516 31.0103 21.4383 31.0409 21.4236 31.0689C21.3796 31.1555 21.3383 31.2448 21.297 31.3355C21.2557 31.4261 21.201 31.5407 21.1557 31.646C21.1104 31.7513 21.0824 31.8219 21.0478 31.9125C21.0131 32.0032 20.9665 32.1244 20.9278 32.2297C20.8892 32.335 20.8639 32.415 20.8332 32.5083C20.8026 32.6016 20.7692 32.7162 20.7386 32.8214C20.7079 32.9267 20.6826 33.0174 20.6573 33.116C20.632 33.2146 20.6093 33.3212 20.5853 33.4252C20.5613 33.5291 20.54 33.6278 20.5214 33.7304C20.5027 33.833 20.4854 33.9409 20.4694 34.0476C20.4534 34.1542 20.4347 34.2475 20.4241 34.3474C20.4134 34.4474 20.3987 34.5873 20.3881 34.7059C20.3801 34.7939 20.3694 34.8819 20.3641 34.9725C20.3508 35.1697 20.3441 35.3723 20.3428 35.5629V35.6135C20.3428 35.8068 20.3428 35.9973 20.3601 36.1866C20.3601 36.2279 20.3601 36.2692 20.3694 36.3105C20.3814 36.4745 20.3974 36.6371 20.4161 36.7983C20.4161 36.8143 20.4161 36.8316 20.4161 36.8476C20.4161 36.8636 20.4241 36.8983 20.4267 36.9249C20.4414 37.0302 20.4561 37.1355 20.4734 37.2408L20.5094 37.4407C20.5254 37.5233 20.54 37.606 20.5573 37.6872C20.5747 37.7685 20.6013 37.8805 20.624 37.9751C20.6373 38.0271 20.6493 38.0777 20.6626 38.1297C20.6986 38.263 20.7386 38.4096 20.7812 38.5482V38.5668C21.2368 40.0287 22.0212 41.3668 23.0742 42.4784C24.1272 43.5901 25.4208 44.4458 26.8558 44.9799L26.9038 44.9973C27.0371 45.0466 27.1703 45.0919 27.3036 45.1305L27.3782 45.1545C27.5115 45.1945 27.6368 45.2318 27.7674 45.2665L27.8474 45.2878C27.9806 45.3211 28.1139 45.3531 28.2472 45.3824L28.3165 45.3971C28.4604 45.4264 28.6044 45.4531 28.751 45.4757L28.7923 45.4837C29.1938 45.5466 29.5988 45.5849 30.0051 45.5983V45.6063H30.1383H30.1543C30.2103 45.6063 30.2663 45.6063 30.3209 45.6063H30.3449C30.3563 45.609 30.3682 45.609 30.3796 45.6063H30.3929C30.5062 45.6063 30.6181 45.6063 30.7234 45.5957C33.3093 45.4975 35.7568 44.4017 37.5523 42.5381C39.3477 40.6745 40.3518 38.188 40.3537 35.6002C40.367 35.3723 40.359 35.1524 40.3457 34.9325ZM35.352 43.482C34.0252 44.3259 32.505 44.8172 30.9353 44.9093C31.6581 43.4584 32.0189 41.854 31.9866 40.2333C31.9543 38.6126 31.5301 37.0239 30.75 35.6029C31.4686 34.4142 32.4423 33.4 33.6008 32.6335C34.4747 33.5025 35.1687 34.5352 35.643 35.6727C36.1173 36.8102 36.3626 38.0301 36.3648 39.2625C36.3699 40.7298 36.0225 42.1769 35.352 43.482ZM21.413 38.2843C21.3903 38.207 21.3703 38.1297 21.349 38.0497C22.5868 39.3937 24.1703 40.3714 25.9264 40.8758C27.6825 41.3802 29.5435 41.392 31.3058 40.9098C31.2337 42.3178 30.8446 43.6913 30.1676 44.928C28.2054 44.8844 26.3065 44.2256 24.739 43.0445C23.1714 41.8634 22.0145 40.2197 21.4316 38.3456C21.4249 38.3203 21.4196 38.3043 21.413 38.2843ZM21.0131 35.5549C21.0131 35.3723 21.0131 35.1884 21.0318 35.0058C21.0318 34.9258 21.0464 34.8445 21.0531 34.7646C21.0638 34.6513 21.0731 34.5393 21.0864 34.4274C21.0998 34.3154 21.1131 34.2421 21.1277 34.1502C21.1424 34.0582 21.1584 33.9489 21.1771 33.8516C21.1957 33.7544 21.2157 33.6637 21.237 33.5704C21.2584 33.4772 21.2797 33.3759 21.3037 33.2786C21.3277 33.1813 21.3517 33.0987 21.377 33.012C21.4023 32.9254 21.4356 32.8121 21.4676 32.7135C21.4996 32.6149 21.5236 32.5469 21.5529 32.4616C21.5822 32.3763 21.6275 32.2564 21.6675 32.1551C21.6982 32.0765 21.7301 31.9978 21.7635 31.9219C21.8074 31.8192 21.8541 31.718 21.8967 31.618C21.9287 31.5514 21.9594 31.4847 21.9914 31.4194C22.8834 32.7779 24.0936 33.898 25.5169 34.6826C26.9401 35.4672 28.5334 35.8924 30.1583 35.9214C30.8834 37.2398 31.2793 38.7138 31.3125 40.2181C29.4505 40.7671 27.4636 40.7205 25.6294 40.0849C23.7952 39.4493 22.2055 38.2564 21.0824 36.673C21.0664 36.5318 21.0531 36.3905 21.0425 36.2492C21.0425 36.2133 21.0425 36.1759 21.0345 36.1386C21.0225 35.96 21.0158 35.7814 21.0158 35.6055V35.5562L21.0131 35.5549ZM38.0121 30.2426C38.0587 30.3093 38.1 30.3759 38.1454 30.4399C36.5202 30.534 34.9422 31.0213 33.5469 31.8601C32.1517 32.6988 30.9811 33.8639 30.1357 35.255C28.7273 35.2219 27.3447 34.8697 26.0922 34.2248C26.6727 32.3061 27.8547 30.625 29.4637 29.4294C31.0728 28.2339 33.0235 27.5873 35.0281 27.5852C35.0761 27.5852 35.1227 27.5852 35.1707 27.5852C36.2943 28.261 37.2636 29.1649 38.0161 30.2386L38.0121 30.2426ZM33.9753 26.9801C32.044 27.1854 30.2142 27.948 28.7087 29.1749C27.2033 30.4019 26.0872 32.0402 25.4964 33.8903C24.2173 33.1118 23.1438 32.0378 22.3659 30.7584C22.4032 30.6944 22.4432 30.6251 22.4831 30.5705C22.5364 30.4865 22.5884 30.4039 22.6444 30.3212C22.7004 30.2386 22.767 30.1493 22.8296 30.064C22.8923 29.9787 22.9456 29.9068 23.0056 29.8295L23.2055 29.5856C23.2681 29.5123 23.3307 29.4376 23.3947 29.3657C23.4587 29.2937 23.54 29.2111 23.6133 29.1351C23.6866 29.0592 23.7466 28.9952 23.8132 28.9285C23.8798 28.8619 23.9678 28.7833 24.0464 28.7113C24.1251 28.6393 24.1797 28.578 24.257 28.5207C24.3343 28.4634 24.4223 28.3875 24.5049 28.3195C24.5875 28.2515 24.6502 28.2009 24.7248 28.1449C24.7994 28.0889 24.898 28.0196 24.9913 27.9583C25.0846 27.897 25.1433 27.849 25.2206 27.7984C25.2979 27.7477 25.4031 27.6838 25.4951 27.6278C25.5871 27.5718 25.651 27.5305 25.7323 27.4839C25.8136 27.4372 25.9229 27.3812 26.0189 27.3306C26.1148 27.28 26.1801 27.244 26.2628 27.204C26.3454 27.164 26.4627 27.112 26.5626 27.0707C26.6626 27.0294 26.7265 26.9948 26.8105 26.9601C26.8945 26.9255 27.0184 26.8801 27.1224 26.8415C27.2263 26.8028 27.289 26.7762 27.3743 26.7482C27.4809 26.7122 27.5888 26.6816 27.6981 26.6482C27.7821 26.6229 27.8647 26.5949 27.9513 26.5723C28.0619 26.5416 28.1752 26.5176 28.2885 26.4923C28.3725 26.4723 28.4564 26.451 28.5391 26.4337C28.659 26.4097 28.7803 26.3924 28.9016 26.3737C28.9802 26.3604 29.0588 26.3444 29.1388 26.3337C29.2721 26.3164 29.4053 26.3044 29.5493 26.2924C29.6159 26.2924 29.6825 26.2777 29.7465 26.2737C29.9504 26.2604 30.1543 26.2538 30.3609 26.2538C31.6043 26.2498 32.8356 26.4978 33.9806 26.9828L33.9753 26.9801ZM36.4195 42.693C37.0674 40.9225 37.2013 39.0048 36.8059 37.1614C36.4104 35.318 35.5016 33.624 34.1845 32.275C35.4549 31.5685 36.8718 31.1661 38.3239 31.0996L38.5385 31.0929C39.5735 32.9744 39.9277 35.1553 39.5414 37.2676C39.1552 39.3799 38.052 41.2943 36.4181 42.6877L36.4195 42.693Z" fill="white"/>
<ellipse cx="151.35" cy="35.5883" rx="10.0619" ry="10.0619" fill="#FF6200"/>
<path d="M151.349 25.5259C149.867 25.5243 148.404 25.8502 147.063 26.4802C145.722 27.1102 144.537 28.0288 143.593 29.1702C142.649 30.3116 141.969 31.6477 141.601 33.0827C141.233 34.5177 141.187 36.0163 141.466 37.4712L141.428 37.5165C141.446 37.5325 141.464 37.5444 141.482 37.5591C141.856 39.4281 142.752 41.1526 144.068 42.5319C145.383 43.9112 147.063 44.8886 148.912 45.3504C150.761 45.8121 152.703 45.7392 154.513 45.1401C156.322 44.5409 157.924 43.4403 159.132 41.9662C160.34 40.4922 161.105 38.7053 161.337 36.8136C161.569 34.9219 161.259 33.0031 160.443 31.2807C159.627 29.5582 158.339 28.1029 156.728 27.0841C155.117 26.0653 153.25 25.525 151.345 25.5259H151.349ZM159.919 32.0563C159.906 35.3201 156.987 36.0158 155.771 36.1637C156.79 32.6467 156.5 29.2695 156.277 27.7422C157.908 28.7695 159.18 30.2766 159.919 32.0563ZM155.388 27.2491C155.557 28.1207 156.194 32.0469 154.955 36.1224C152.596 35.4974 152.262 33.7795 151.815 31.4406C151.514 29.8573 151.171 28.0821 150.083 26.4055C150.499 26.3478 150.92 26.3184 151.341 26.3175C152.745 26.3147 154.131 26.6329 155.393 27.2478L155.388 27.2491ZM149.236 26.5628C150.388 28.19 150.734 29.9919 151.039 31.5898C151.482 33.9114 151.904 36.1091 154.704 36.8754C154.494 37.4569 154.245 38.0237 153.959 38.572C148.153 35.7599 144.589 31.242 143.815 30.1891C145.125 28.3631 147.053 27.0742 149.242 26.5614L149.236 26.5628ZM143.355 30.8928C144.44 32.3108 147.993 36.5436 153.573 39.2623C153.351 39.632 153.11 39.9901 152.852 40.3352C151.325 39.5755 149.889 39.4583 148.499 39.345C146.576 39.189 144.588 39.0211 142.202 37.13C142.115 36.621 142.07 36.1057 142.069 35.5893C142.069 33.9358 142.516 32.313 143.36 30.8915L143.355 30.8928ZM142.485 38.3201C144.712 39.8274 146.601 39.9847 148.437 40.1339C149.759 40.2419 151.015 40.3458 152.345 40.9696C151.156 42.3467 149.696 43.4652 148.057 44.2561C146.739 43.7531 145.553 42.9575 144.588 41.9292C143.622 40.9009 142.903 39.6669 142.485 38.3201ZM149.122 44.5839C150.63 43.7558 151.97 42.6534 153.073 41.3334C153.497 41.568 154.329 42.1144 154.539 42.902C154.672 43.3685 154.551 43.8722 154.199 44.4013C152.556 44.9373 150.794 45.0006 149.116 44.5839H149.122ZM155.28 43.9762C155.412 43.558 155.421 43.1106 155.305 42.6875C155.03 41.6892 154.117 41.0242 153.573 40.703C153.839 40.3405 154.081 39.97 154.302 39.5955C155.747 40.2462 157.253 40.7503 158.799 41.1002C157.88 42.3353 156.671 43.3246 155.279 43.9802L155.28 43.9762ZM159.277 40.3992C157.699 40.0645 156.162 39.5637 154.69 38.9052C155.011 38.2844 155.286 37.6412 155.515 36.9807C156.209 36.9301 158.155 36.6702 159.47 35.3295C159.908 34.8834 160.24 34.3446 160.442 33.7528C160.904 36.0359 160.488 38.4093 159.277 40.3992Z" fill="white"/>
<ellipse cx="62.1846" cy="10.0619" rx="9.73464" ry="9.73465" fill="#CAEE16"/>
<path d="M68.2371 2.02007C66.3274 0.576291 63.9625 -0.133183 61.5735 0.0209748C61.4905 -0.00360237 61.4014 0.00303205 61.3229 0.0396309C61.1417 0.0556236 60.9591 0.0756175 60.7765 0.100939C58.5724 0.414479 56.5343 1.4496 54.9809 3.04446C53.4275 4.63931 52.4464 6.70398 52.1911 8.91562C52.1579 8.98728 52.1495 9.06789 52.1671 9.14485C52.0423 10.5351 52.2076 11.9362 52.6527 13.2592C53.0978 14.5822 53.8128 15.7984 54.7525 16.8305C55.6922 17.8627 56.8361 18.6884 58.1117 19.2554C59.3873 19.8223 60.7667 20.118 62.1625 20.1239C62.2878 20.1239 62.4144 20.1239 62.541 20.1172H62.6023C62.9329 20.1021 63.2638 20.0715 63.5952 20.0253C65.5651 19.7458 67.4079 18.8884 68.8906 17.5617C70.3733 16.2349 71.4294 14.4984 71.9252 12.5715C72.4211 10.6446 72.3344 8.61402 71.6763 6.73638C71.0182 4.85874 69.8181 3.21839 68.2278 2.02273L68.2371 2.02007ZM54.7339 4.45763C55.4674 3.47548 56.3885 2.64865 57.4438 2.02502C58.4991 1.40139 59.6677 0.993377 60.8818 0.824611L61.1243 0.793957C61.1307 1.83595 60.9306 2.86887 60.5356 3.83312C60.1406 4.79737 59.5586 5.67384 58.8231 6.41195C58.0876 7.15006 57.2132 7.73519 56.2503 8.13357C55.2875 8.53196 54.2553 8.73569 53.2133 8.73304H52.9547C53.1765 7.18034 53.7887 5.70931 54.7339 4.45763ZM52.9547 11.3718C52.8639 10.7359 52.8389 10.0924 52.8801 9.45138C52.992 9.45138 53.1026 9.45804 53.2133 9.45804C54.3559 9.4613 55.4878 9.23737 56.5432 8.79929C57.5985 8.36121 58.5563 7.7177 59.3607 6.90619C60.1651 6.09468 60.8003 5.13135 61.2291 4.07221C61.6579 3.01306 61.8719 1.87924 61.8587 0.736651C61.9786 0.736651 62.0972 0.729989 62.2159 0.729989C63.4619 0.73375 64.6946 0.986915 65.8413 1.47457C66.9879 1.96222 68.0254 2.67448 68.8925 3.56938C69.7595 4.46428 70.4387 5.52369 70.8899 6.68519C71.3411 7.84669 71.5552 9.08676 71.5196 10.3323C70.289 10.2237 69.0494 10.3817 67.8854 10.7957C66.7214 11.2097 65.6604 11.8699 64.7747 12.7312C63.8807 13.5846 63.1845 14.6234 62.7348 15.7746C62.2851 16.9258 62.093 18.1615 62.1719 19.3949C59.9274 19.3901 57.7598 18.5762 56.0669 17.1025C54.3739 15.6289 53.2689 13.5942 52.9547 11.3718ZM69.6512 15.6632C68.9171 16.645 67.9957 17.4715 66.9402 18.0949C65.8847 18.7183 64.7161 19.1261 63.5019 19.2949C63.302 19.3229 63.1021 19.3456 62.9022 19.3602C62.8296 18.2321 63.005 17.1017 63.416 16.0486C63.8269 14.9954 64.4636 14.0451 65.2811 13.2643C66.0933 12.4728 67.067 11.8664 68.1356 11.4866C69.2041 11.1068 70.3422 10.9626 71.4717 11.064C71.2924 12.7336 70.6632 14.3232 69.6512 15.6632Z" fill="white"/>
<circle cx="114.032" cy="10.0955" r="10.0949" fill="white"/>
<path d="M110.245 0.736952C107.919 1.67821 106.026 3.45218 104.937 5.71289C103.848 7.9736 103.64 10.5589 104.354 12.9647C105.067 15.3705 106.652 17.4242 108.797 18.7253C110.943 20.0264 113.496 20.4816 115.96 20.0022C118.423 19.5227 120.619 18.143 122.12 16.132C123.621 14.1211 124.319 11.6231 124.079 9.1253C123.838 6.62749 122.675 4.30893 120.818 2.6218C118.96 0.934681 116.541 -3.28191e-05 114.031 -4.71634e-05C112.733 -0.00220803 111.447 0.248106 110.245 0.736952ZM106.484 14.2988C105.999 14.0001 105.554 13.6419 105.158 13.2326C104.556 11.5357 104.449 9.70223 104.851 7.94702C105.04 7.57647 105.255 7.22013 105.495 6.88083C105.571 6.77555 105.64 6.66626 105.72 6.56364L107.986 7.90704V7.96434C107.981 9.18341 108.104 10.3996 108.351 11.5934C108.352 11.5978 108.352 11.6023 108.351 11.6067L106.59 14.3681C106.558 14.3428 106.521 14.3215 106.484 14.2988ZM113.235 18.9634C113.625 19.1626 114.029 19.3319 114.444 19.4698C112.66 19.5495 110.889 19.1206 109.339 18.233L113.145 18.9114C113.174 18.9314 113.204 18.9496 113.235 18.966V18.9634ZM113.222 18.277L108.729 17.4774C108.202 16.8416 107.732 16.1606 107.325 15.4423C107.222 15.2597 107.106 15.0811 107.018 14.8892L108.777 12.1305L108.911 12.1638C110.013 12.4512 111.131 12.6737 112.26 12.8301L112.428 12.8528L114.536 16.4991C114.17 17.0136 113.801 17.5254 113.422 18.0318C113.358 18.1184 113.298 18.1957 113.222 18.2797V18.277ZM120.695 16.7297C120.343 17.0824 119.964 17.4064 119.561 17.6986C119.495 17.1736 119.381 16.6557 119.221 16.1513L121.47 11.9532C122.092 11.6783 122.686 11.3435 123.243 10.9537C123.312 10.907 123.373 10.8494 123.423 10.7831C123.257 13.0286 122.289 15.1394 120.695 16.7297ZM120.595 11.2855C120.679 11.4454 120.761 11.6067 120.844 11.7706L118.67 15.8248L118.634 15.8314C117.462 16.0526 116.273 16.1672 115.08 16.174L112.912 12.4237C113.249 11.7964 113.584 11.1678 113.915 10.5378C114.14 10.11 114.362 9.6809 114.582 9.25043L119.07 8.79064C119.627 9.59032 120.136 10.422 120.595 11.2815V11.2855ZM119.685 6.46769C119.471 7.0301 119.243 7.58718 119.018 8.14427L114.644 8.60006C114.592 8.53209 114.538 8.46678 114.48 8.39881C113.965 7.8133 113.446 7.23045 112.925 6.65027L112.94 6.63428L112.311 6.00656L113.529 2.34156C113.612 2.31817 113.696 2.30124 113.782 2.29092C114.448 2.22428 115.107 2.14831 115.77 2.10966C116.179 2.08144 116.589 2.07921 116.998 2.103L120.01 5.49746C119.906 5.82398 119.805 6.15183 119.685 6.46769ZM120.695 3.40241C121.503 4.21022 122.157 5.15865 122.625 6.20114C122.061 5.81683 121.458 5.49339 120.827 5.23625C120.728 5.19493 120.628 5.15895 120.526 5.1243L117.563 1.77382C117.583 1.62932 117.595 1.48383 117.599 1.33801C118.758 1.81284 119.811 2.51474 120.695 3.40241ZM111.014 1.16743C111.026 1.17542 111.031 1.18341 111.038 1.18475C111.706 1.4247 112.337 1.75712 112.913 2.1723L111.776 5.59741H111.759C111.526 5.69337 111.288 5.78 111.059 5.88395C110.112 6.30369 109.199 6.79651 108.328 7.35795L106.084 6.02522C106.086 5.9552 106.099 5.88594 106.123 5.81998C106.273 5.42017 106.421 5.02035 106.592 4.62053C106.724 4.31835 106.872 4.02379 107.037 3.73826C107.144 3.61964 107.254 3.5037 107.367 3.38908C108.397 2.35935 109.653 1.58365 111.035 1.12344C111.027 1.13622 111.02 1.14958 111.014 1.16343V1.16743Z" fill="black"/>
</g>
</g>
<defs>
<filter id="filter0_d" x="0.608018" y="0" width="176.373" height="162.607" filterUnits="userSpaceOnUse" color-interpolation-filters="sRGB">
<feFlood flood-opacity="0" result="BackgroundImageFix"/>
<feColorMatrix in="SourceAlpha" type="matrix" values="0 0 0 0 0 0 0 0 0 0 0 0 0 0 0 0 0 0 127 0"/>
<feOffset dy="3.3036"/>
<feGaussianBlur stdDeviation="1.6518"/>
<feColorMatrix type="matrix" values="0 0 0 0 0 0 0 0 0 0 0 0 0 0 0 0 0 0 0.25 0"/>
<feBlend mode="normal" in2="BackgroundImageFix" result="effect1_dropShadow"/>
<feBlend mode="normal" in="SourceGraphic" in2="effect1_dropShadow" result="shape"/>
</filter>
<clipPath id="clip0">
<rect x="3.91162" width="169.766" height="156" fill="white"/>
</clipPath>
</defs>
</svg>
