<svg width="47" height="60" viewBox="0 0 47 60" fill="none" xmlns="http://www.w3.org/2000/svg">
<g filter="url(#filter0_d)">
<path fill-rule="evenodd" clip-rule="evenodd" d="M4 19.515C4.0055 8.74331 12.7333 0.0110302 23.5049 3.05176e-05C34.2726 0.0166014 42.9944 8.74731 43 19.515C43.0068 32.5346 25.1809 50.1012 24.2599 51.1429L24.2479 51.1566C24.237 51.1688 24.2258 51.1806 24.2144 51.1923L24.1925 51.2139L24.1696 51.2349C23.7566 51.6048 23.1219 51.5698 22.7521 51.1566C21.9891 50.3034 3.99297 33.2867 4 19.515Z" fill="#4F4F4F"/>
</g>
<path d="M16.539 2.09219C14.244 3.02269 12.1847 4.39083 10.4188 6.15621C8.6524 7.92211 7.28582 9.98198 6.35482 12.2765C5.45604 14.4934 5 16.836 5 19.2389C5 21.6413 5.45604 23.9839 6.35482 26.1997C7.28582 28.4948 8.65291 30.5546 10.4188 32.32C12.1847 34.0864 14.2435 35.4535 16.539 36.384C18.7558 37.2839 21.0979 37.7384 23.5008 37.7384C25.9037 37.7384 28.2452 37.2823 30.462 36.384C32.7565 35.4535 34.8169 34.0864 36.5822 32.32C38.3486 30.5546 39.7157 28.4958 40.6462 26.1997C41.545 23.9839 42 21.6413 42 19.2389C42 16.836 41.5445 14.4934 40.6462 12.2765C39.7157 9.98198 38.3476 7.9216 36.5822 6.15621C34.8169 4.39083 32.7586 3.02269 30.462 2.09219C28.2452 1.19391 25.9037 0.738373 23.5008 0.738373C21.0979 0.738373 18.7558 1.19391 16.539 2.09219ZM9.62379 27.0269C8.73267 26.4676 7.91159 25.8234 7.18459 25.0647C6.07415 21.9399 5.886 18.5569 6.6217 15.3456C6.96782 14.6631 7.36148 14.0077 7.80679 13.3798C7.94431 13.1861 8.07162 12.9841 8.21886 12.796L12.3938 15.2664C12.3938 15.2991 12.3938 15.3349 12.3938 15.3712C12.383 17.6167 12.611 19.8457 13.065 22.0426C13.0666 22.0529 13.0681 22.0585 13.0702 22.0677L9.83238 27.1445C9.76182 27.1087 9.69178 27.0699 9.62379 27.0269ZM22.037 35.6095C22.7574 35.9771 23.4982 36.2874 24.2595 36.54C21.0258 36.6806 17.7599 35.9229 14.8728 34.2664L21.8714 35.5134C21.9251 35.5476 21.9798 35.5803 22.037 35.6095ZM22.0115 34.3461L13.7527 32.8742C12.7864 31.7009 11.9173 30.4595 11.1703 29.1328C10.9801 28.7954 10.768 28.4677 10.6069 28.1154L13.8416 23.0437C13.9132 23.0616 13.993 23.0805 14.0835 23.1045C16.107 23.646 18.1663 24.0309 20.24 24.3326C20.3612 24.3495 20.4624 24.3643 20.5488 24.3735L24.4261 31.0777C23.7533 32.0235 23.0728 32.9642 22.3775 33.8947C22.262 34.0496 22.1393 34.1984 22.0115 34.3461ZM35.752 31.4902C35.0945 32.1482 34.3966 32.7413 33.666 33.2699C33.5449 32.3016 33.3358 31.3527 33.0408 30.4258L37.1778 22.7078C38.3174 22.1889 39.4166 21.6004 40.4371 20.8708C40.5705 20.7762 40.6815 20.6704 40.7674 20.5549C40.4678 24.5432 38.796 28.4467 35.752 31.4902ZM35.5684 21.4808C35.7223 21.7742 35.8741 22.0708 36.0265 22.3714L32.0305 29.8256C32.0075 29.8307 31.9855 29.8358 31.9625 29.8389C29.8025 30.2423 27.6251 30.457 25.4292 30.4672L21.4414 23.5718C22.0621 22.4194 22.6771 21.2625 23.2871 20.105C23.7012 19.3197 24.1081 18.5293 24.5146 17.7394L32.7678 16.8917C33.7785 18.3743 34.7361 19.8887 35.5684 21.4808ZM33.8941 12.639C33.5024 13.6733 33.0832 14.6968 32.6665 15.7224L24.6265 16.5481C24.5304 16.4213 24.4307 16.2966 24.3259 16.1774C23.3765 15.1023 22.421 14.0337 21.467 12.9621C21.4757 12.9514 21.4844 12.9432 21.4931 12.9335C21.1081 12.549 20.7221 12.1646 20.3371 11.7791L22.5754 5.04013C22.7298 4.99923 22.8852 4.96497 23.0422 4.9481C24.259 4.82438 25.4773 4.68429 26.6971 4.61374C27.4441 4.57181 28.1951 4.54778 28.9548 4.60147L34.4927 10.8435C34.302 11.4457 34.1159 12.0495 33.8941 12.639ZM35.752 6.9865C37.2796 8.51517 38.4626 10.2596 39.299 12.1231C38.2643 11.411 37.1579 10.8251 35.9948 10.3475C35.8138 10.2729 35.6282 10.2069 35.4396 10.142L29.9886 3.99818C30.0264 3.73283 30.0464 3.46698 30.0545 3.19907C32.1282 4.04317 34.072 5.30701 35.752 6.9865ZM17.9521 2.87647C17.9736 2.89232 17.9838 2.90561 17.9961 2.90919C19.242 3.33967 20.3755 3.97364 21.444 4.7257L19.353 11.0229C19.3422 11.026 19.332 11.029 19.3218 11.0336C18.8939 11.2105 18.4578 11.369 18.0365 11.5608C16.3008 12.3496 14.6085 13.2234 13.0144 14.271L8.88809 11.8297C8.89423 11.7008 8.91621 11.57 8.96018 11.4534C9.23728 10.7151 9.50978 9.97278 9.82318 9.24934C10.0645 8.69207 10.3395 8.15371 10.6396 7.62762C10.836 7.41085 11.0394 7.19612 11.2491 6.9865C13.2087 5.02735 15.5247 3.6362 17.9905 2.81358C17.9777 2.83352 17.9644 2.85448 17.9521 2.87647Z" fill="white"/>
<defs>
<filter id="filter0_d" x="0" y="3.05176e-05" width="47" height="59.4909" filterUnits="userSpaceOnUse" color-interpolation-filters="sRGB">
<feFlood flood-opacity="0" result="BackgroundImageFix"/>
<feColorMatrix in="SourceAlpha" type="matrix" values="0 0 0 0 0 0 0 0 0 0 0 0 0 0 0 0 0 0 127 0"/>
<feOffset dy="4"/>
<feGaussianBlur stdDeviation="2"/>
<feColorMatrix type="matrix" values="0 0 0 0 0.379167 0 0 0 0 0.188572 0 0 0 0 0.0126389 0 0 0 0.2 0"/>
<feBlend mode="normal" in2="BackgroundImageFix" result="effect1_dropShadow"/>
<feBlend mode="normal" in="SourceGraphic" in2="effect1_dropShadow" result="shape"/>
</filter>
</defs>
</svg>
