<svg width="47" height="60" viewBox="0 0 47 60" fill="none" xmlns="http://www.w3.org/2000/svg">
<g filter="url(#filter0_d)">
<path fill-rule="evenodd" clip-rule="evenodd" d="M4 19.5149C4.0055 8.74328 12.7333 0.0109996 23.5049 0C34.2726 0.0165709 42.9944 8.74728 43 19.5149C43.0068 32.5346 25.1809 50.1012 24.2599 51.1429L24.2479 51.1566C24.237 51.1687 24.2258 51.1806 24.2144 51.1923L24.1925 51.2139L24.1696 51.2349C23.7566 51.6047 23.1219 51.5697 22.7521 51.1566C21.9891 50.3033 3.99297 33.2867 4 19.5149Z" fill="#FFD80B"/>
</g>
<path d="M41.9599 17.9733C41.9307 17.5286 41.8823 17.0865 41.8211 16.6463C41.5523 14.6858 40.9693 12.7816 40.0943 11.0069C39.916 10.6453 39.7254 10.29 39.5228 9.94069C39.2605 9.48482 38.979 9.0446 38.6595 8.59505C36.886 6.05763 34.5045 4.00529 31.7332 2.62562C28.4303 0.982786 24.7117 0.366422 21.0553 0.855117C15.3701 1.62173 10.3588 4.97365 7.47901 9.93497C7.43023 10.019 7.38898 10.1057 7.34201 10.1903C7.26312 10.3327 7.18242 10.474 7.10654 10.6182C7.0957 10.6347 7.08577 10.6516 7.07673 10.6688C7.04963 10.7212 7.02675 10.7757 6.99965 10.8281C6.91835 10.9894 6.84127 11.1529 6.76418 11.3164C6.67476 11.5061 6.58713 11.6967 6.50463 11.8898C6.43477 12.0514 6.36883 12.2149 6.30409 12.3781C6.22701 12.5733 6.15324 12.7687 6.08338 12.9653C6.02256 13.136 5.96414 13.3074 5.90814 13.4796C5.84671 13.6714 5.7886 13.8638 5.73319 14.0574C5.6808 14.2387 5.62961 14.42 5.58324 14.6033C5.53687 14.7864 5.49261 14.9824 5.45015 15.173C5.4074 15.3636 5.36615 15.5479 5.33031 15.7367C5.29478 15.9252 5.26437 16.1275 5.23366 16.3235C5.20535 16.5087 5.17193 16.6936 5.15025 16.8788C5.12255 17.0995 5.10479 17.3208 5.08491 17.5421C5.07016 17.7044 5.05119 17.8658 5.04065 18.0287C5.01626 18.393 5.00271 18.7565 5 19.119V19.2145C5 19.5698 5.01355 19.9227 5.03372 20.2729C5.03884 20.3493 5.04547 20.4258 5.05119 20.5023C5.07287 20.8043 5.10147 21.1048 5.1367 21.4032C5.14062 21.4333 5.14182 21.4649 5.14543 21.4938C5.15146 21.542 5.16019 21.5893 5.16711 21.6375C5.19301 21.8329 5.22071 22.0277 5.25263 22.2216C5.2731 22.3448 5.29599 22.4682 5.31857 22.5914C5.34778 22.7437 5.37608 22.8961 5.408 23.0478C5.44564 23.2261 5.4884 23.4029 5.53145 23.5793C5.55494 23.6744 5.57662 23.7693 5.60101 23.8635C5.66846 24.124 5.74223 24.3817 5.82082 24.6371L5.83045 24.6714C7.53713 30.1476 11.6828 34.5251 17.0581 36.5269L17.1476 36.5591C17.3942 36.6485 17.6411 36.7331 17.8877 36.8129C17.9325 36.8277 17.9789 36.8412 18.0244 36.8557C18.2625 36.9294 18.5025 36.999 18.7449 37.064L18.8922 37.1023C19.1388 37.1652 19.3854 37.2233 19.6323 37.2766L19.7624 37.3037C20.0267 37.3585 20.2938 37.4076 20.5639 37.4507L20.6398 37.4636C21.3826 37.5801 22.1318 37.6512 22.8833 37.6771V37.6918H23.1164V37.6825H23.1453L23.1489 37.6837C23.2519 37.6837 23.3549 37.6912 23.4572 37.6912H23.5C23.5217 37.6955 23.544 37.6955 23.5659 37.6912H23.5882C23.7996 37.6912 24.005 37.6831 24.1998 37.672C34.1351 37.2959 41.9964 29.1341 42 19.1919C42 18.7839 41.9865 18.3777 41.9599 17.9733ZM32.7319 33.7742C30.2755 35.336 27.4605 36.2444 24.5545 36.4127C27.2665 30.9696 27.1389 24.5431 24.2127 19.2121C25.5424 17.0134 27.3454 15.1384 29.4908 13.7238C32.7542 16.9664 34.5928 21.3746 34.6 25.9752C34.6102 28.6867 33.9695 31.3614 32.7319 33.7742ZM6.96773 24.1665C6.92528 24.0246 6.88704 23.881 6.84729 23.7347C11.5117 28.7981 18.6109 30.8369 25.2512 29.0197C25.1194 31.6221 24.4003 34.1611 23.1477 36.4462C15.7107 36.2827 9.20977 31.3849 7.00146 24.2812C6.99001 24.2429 6.97948 24.2047 6.96773 24.1665ZM6.23333 19.1232C6.23333 18.7842 6.24447 18.446 6.26646 18.1088C6.27579 17.9592 6.29355 17.8104 6.3065 17.6614C6.32517 17.4533 6.34233 17.2449 6.36823 17.0378C6.38991 16.8664 6.41821 16.696 6.44471 16.5253C6.47362 16.3404 6.50162 16.1552 6.53595 15.9734C6.56877 15.7996 6.60701 15.628 6.64525 15.4555C6.68349 15.2826 6.72534 15.0941 6.7684 14.9153C6.81116 14.7482 6.85723 14.5822 6.9048 14.4169C6.9578 14.2321 7.0126 14.0469 7.07131 13.8662C7.1219 13.7102 7.17489 13.5579 7.22909 13.4001C7.29684 13.2101 7.3679 13.0219 7.44258 12.834C7.49979 12.6892 7.5579 12.5435 7.61903 12.4022C7.69972 12.2128 7.78614 12.0262 7.87346 11.8398C7.93158 11.7166 7.98818 11.5932 8.04871 11.4748C9.67137 13.9427 11.861 15.986 14.4349 17.4343C17.093 18.9293 20.0806 19.7411 23.1299 19.7968C24.4717 22.2331 25.204 24.9581 25.2648 27.7388C18.2099 29.8191 10.6123 27.1869 6.35649 21.1879C6.32577 20.9269 6.30078 20.6655 6.28121 20.4041C6.27699 20.3364 6.27037 20.2677 6.26585 20.1994C6.24568 19.87 6.23333 19.5397 6.23333 19.2133V19.1919C6.23333 19.1672 6.23333 19.1449 6.23333 19.1232ZM37.6523 9.30416C37.7387 9.42761 37.8164 9.54715 37.8989 9.6685C31.7994 10.0196 26.2621 13.3471 23.0893 18.5683C20.4862 18.5066 17.9313 17.8553 15.6164 16.6635C17.8196 9.38244 24.5262 4.39974 32.1333 4.39191C32.2216 4.39191 32.3077 4.39552 32.3947 4.39854C34.4717 5.64813 36.2633 7.31926 37.6541 9.30416H37.6523ZM30.1906 3.2727C22.8969 4.04895 16.7498 9.05936 14.5189 16.0468C12.1546 14.6069 10.1703 12.6214 8.73192 10.2563C8.80238 10.1397 8.87494 10.0238 8.94841 9.90908C9.04718 9.75491 9.14504 9.60075 9.24801 9.44899C9.35852 9.2882 9.47445 9.13162 9.58977 8.97475C9.69696 8.82871 9.80386 8.68207 9.91587 8.53965C10.0393 8.38669 10.1628 8.23854 10.2859 8.0901C10.4013 7.95309 10.516 7.81489 10.6355 7.6818C10.7665 7.53606 10.902 7.39635 11.0378 7.25573C11.1609 7.12746 11.2844 6.99859 11.4076 6.87513C11.5482 6.73753 11.6939 6.60625 11.8393 6.47436C11.9688 6.35663 12.0965 6.23619 12.229 6.12207C12.3783 5.9938 12.5331 5.87185 12.6867 5.74839C12.8225 5.64 12.9555 5.52949 13.0937 5.42531C13.2515 5.30637 13.4144 5.19406 13.5758 5.08054C13.717 4.98208 13.8565 4.8803 14.0007 4.78516C14.166 4.67615 14.3367 4.57498 14.5059 4.4714C14.652 4.38258 14.7962 4.29014 14.9456 4.20492C15.1187 4.10616 15.2969 4.01493 15.474 3.92188C15.6246 3.84299 15.7724 3.76109 15.9254 3.68642C16.1102 3.59759 16.2954 3.5175 16.4803 3.43469C16.6327 3.36634 16.7838 3.29468 16.938 3.23054C17.1286 3.15226 17.3222 3.08391 17.5152 3.01224C17.67 2.95443 17.8235 2.8927 17.9795 2.83971C18.1767 2.77316 18.3779 2.71625 18.5778 2.65453C18.7338 2.60786 18.8861 2.55667 19.0457 2.51421C19.2523 2.45851 19.4619 2.41425 19.6711 2.36607C19.8259 2.33084 19.9795 2.29019 20.1342 2.25887C20.3549 2.21491 20.5787 2.18239 20.8021 2.14656C20.9487 2.12308 21.0942 2.09417 21.2417 2.0743C21.4925 2.04117 21.7467 2.0201 21.9996 1.99782C22.1227 1.98758 22.2426 1.97011 22.3651 1.96228C22.7409 1.93759 23.1191 1.92525 23.5 1.92525C25.798 1.91893 28.0741 2.37721 30.1906 3.2727ZM34.709 32.3174C37.1516 25.6383 35.5452 18.1501 30.5775 13.0608C32.9255 11.7543 35.5446 11.0102 38.2289 10.8877C38.3608 10.8829 38.493 10.8765 38.6261 10.8741C42.5757 18.0459 40.9383 27.0062 34.7072 32.3174H34.709Z" fill="white"/>
<defs>
<filter id="filter0_d" x="0" y="0" width="47" height="59.4909" filterUnits="userSpaceOnUse" color-interpolation-filters="sRGB">
<feFlood flood-opacity="0" result="BackgroundImageFix"/>
<feColorMatrix in="SourceAlpha" type="matrix" values="0 0 0 0 0 0 0 0 0 0 0 0 0 0 0 0 0 0 127 0"/>
<feOffset dy="4"/>
<feGaussianBlur stdDeviation="2"/>
<feColorMatrix type="matrix" values="0 0 0 0 0.379167 0 0 0 0 0.188572 0 0 0 0 0.0126389 0 0 0 0.2 0"/>
<feBlend mode="normal" in2="BackgroundImageFix" result="effect1_dropShadow"/>
<feBlend mode="normal" in="SourceGraphic" in2="effect1_dropShadow" result="shape"/>
</filter>
</defs>
</svg>
