<svg width="47" height="60" viewBox="0 0 47 60" fill="none" xmlns="http://www.w3.org/2000/svg">
<g filter="url(#filter0_d)">
<path fill-rule="evenodd" clip-rule="evenodd" d="M4 19.5149C4.0055 8.74328 12.7333 0.0109996 23.5049 0C34.2726 0.0165709 42.9944 8.74728 43 19.5149C43.0068 32.5346 25.1809 50.1012 24.2599 51.1429L24.2479 51.1566C24.237 51.1687 24.2258 51.1806 24.2144 51.1923L24.1925 51.2139L24.1696 51.2349C23.7566 51.6047 23.1219 51.5697 22.7521 51.1566C21.9891 50.3033 3.99297 33.2867 4 19.5149Z" fill="#CAEE16"/>
</g>
<path d="M34.6146 4.4943C31.1051 1.84153 26.7595 0.536971 22.369 0.817833C22.2161 0.773538 22.0524 0.786006 21.908 0.852612C21.5733 0.881814 21.2386 0.919875 20.9035 0.967123C12.5691 2.15225 6.08309 8.80992 5.11671 17.1721C5.05732 17.304 5.04223 17.4517 5.07406 17.5928C4.94641 19.0204 4.98382 20.4581 5.18595 21.8772C6.47882 30.9832 14.264 37.7574 23.4621 37.7803C23.6944 37.7803 23.927 37.7758 24.16 37.7669C24.1685 37.7669 24.1771 37.7682 24.1859 37.7682C24.2089 37.7679 24.2319 37.7669 24.2548 37.7646C24.2604 37.7639 24.266 37.7626 24.2716 37.762C24.8786 37.7354 25.4877 37.6793 26.0977 37.594C33.5058 36.5437 39.5514 31.1348 41.4156 23.8892C43.2801 16.6439 40.5956 8.98907 34.6146 4.4943ZM9.78812 8.97496C12.513 5.32868 16.5836 2.9243 21.0922 2.29761C21.2409 2.27661 21.3892 2.25823 21.5378 2.24084C21.5516 6.1857 19.9647 9.96782 17.1398 12.7216C14.4247 15.3639 10.7817 16.8371 6.99302 16.825C6.83486 16.825 6.67637 16.8217 6.51787 16.8165C6.92903 13.9685 8.0539 11.2711 9.78812 8.97496ZM6.51656 21.6885C6.35052 20.5192 6.30425 19.3357 6.37907 18.1568C6.58416 18.1643 6.78859 18.1686 6.99302 18.1689C11.1335 18.1807 15.1135 16.57 18.0799 13.682C21.1887 10.6503 22.9229 6.47936 22.8803 2.13716C23.0995 2.12896 23.3183 2.12469 23.5369 2.12436C32.0662 2.14602 39.2856 8.42768 40.485 16.8719C40.6221 17.8375 40.6779 18.813 40.651 19.7881C36.0712 19.3846 31.5425 20.9976 28.2493 24.2058C24.9197 27.3842 23.1986 31.8074 23.4621 36.4361C14.9334 36.4131 7.71559 30.1318 6.51656 21.6885ZM37.2134 29.5858C34.4886 33.2318 30.418 35.6362 25.9093 36.2628C25.5408 36.315 25.1726 36.3554 24.8051 36.3833C24.5574 32.1405 26.1302 28.0867 29.1809 25.1744C32.2024 22.2296 36.3596 20.7521 40.5621 21.1291C40.2323 24.1992 39.075 27.122 37.2134 29.5858Z" fill="white"/>
<defs>
<filter id="filter0_d" x="0" y="0" width="47" height="59.4909" filterUnits="userSpaceOnUse" color-interpolation-filters="sRGB">
<feFlood flood-opacity="0" result="BackgroundImageFix"/>
<feColorMatrix in="SourceAlpha" type="matrix" values="0 0 0 0 0 0 0 0 0 0 0 0 0 0 0 0 0 0 127 0"/>
<feOffset dy="4"/>
<feGaussianBlur stdDeviation="2"/>
<feColorMatrix type="matrix" values="0 0 0 0 0.379167 0 0 0 0 0.188572 0 0 0 0 0.0126389 0 0 0 0.2 0"/>
<feBlend mode="normal" in2="BackgroundImageFix" result="effect1_dropShadow"/>
<feBlend mode="normal" in="SourceGraphic" in2="effect1_dropShadow" result="shape"/>
</filter>
</defs>
</svg>
