<svg width="47" height="60" viewBox="0 0 47 60" fill="none" xmlns="http://www.w3.org/2000/svg">
<g filter="url(#filter0_d)">
<path fill-rule="evenodd" clip-rule="evenodd" d="M4 19.5149C4.0055 8.74328 12.7333 0.0109996 23.5049 0C34.2726 0.0165709 42.9944 8.74728 43 19.5149C43.0068 32.5346 25.1809 50.1012 24.2599 51.1429L24.2479 51.1566C24.237 51.1687 24.2258 51.1806 24.2144 51.1923L24.1925 51.2139L24.1696 51.2349C23.7566 51.6047 23.1219 51.5697 22.7521 51.1566C21.9891 50.3033 3.99297 33.2867 4 19.5149Z" fill="#FF6200"/>
</g>
<path d="M23.5 0.984039C13.2992 0.984039 5 9.28327 5 19.484C5 20.6673 5.11647 21.8244 5.32944 22.9467L5.26003 23.0299C5.29331 23.058 5.32564 23.0817 5.35891 23.1093C7.0489 31.5802 14.5395 37.984 23.5 37.984C33.7008 37.984 42 29.6848 42 19.484C42 9.28327 33.7008 0.984039 23.5 0.984039ZM39.2566 12.987C39.2318 18.9887 33.879 20.2684 31.629 20.5399C33.5044 14.0728 32.9701 7.86473 32.5603 5.05569C35.5367 6.93203 37.896 9.70114 39.2566 12.987ZM30.9364 4.14914C31.2468 5.75356 32.4191 12.9803 30.1402 20.4633C25.8037 19.3139 25.1886 16.1559 24.3676 11.857C23.8119 8.9448 23.1834 5.68177 21.1854 2.59939C21.9431 2.49623 22.7147 2.43824 23.5 2.43824C26.1645 2.43824 28.6879 3.05386 30.9364 4.14914ZM19.6247 2.88795C21.7416 5.87858 22.3786 9.19248 22.9395 12.1299C23.7543 16.3983 24.5302 20.4391 29.6781 21.8495C29.2982 22.8959 28.8466 23.9403 28.3104 24.969C17.6333 19.7968 11.082 11.4881 9.6578 9.55567C12.029 6.25794 15.5473 3.83966 19.6247 2.88795ZM8.81162 10.8487C10.8059 13.4567 17.3395 21.2387 27.5992 26.2373C27.198 26.9062 26.7564 27.5641 26.2734 28.2087C23.4648 26.814 20.8269 26.5981 18.2708 26.3899C14.7339 26.1014 11.0792 25.7928 6.69331 22.3154C6.53834 21.3941 6.45372 20.4491 6.45372 19.484C6.4542 16.3342 7.31607 13.3835 8.81162 10.8487ZM7.2091 24.5036C11.3031 27.2751 14.7782 27.5641 18.1529 27.8398C20.5835 28.0381 22.8934 28.2297 25.3407 29.3763C23.3688 31.6838 20.7946 33.7664 17.4536 35.4179C12.5738 33.5597 8.75933 29.5251 7.2091 24.5036ZM19.4131 36.0316C22.447 34.3374 24.823 32.289 26.6784 30.0542C27.4576 30.4849 28.9845 31.4903 29.3824 32.9379C29.6187 33.7959 29.4043 34.7234 28.7587 35.6965C27.102 36.2351 25.3355 36.5303 23.5005 36.5303C22.0914 36.5298 20.7228 36.3549 19.4131 36.0316ZM30.7344 34.914C30.9754 34.113 30.9968 33.321 30.7824 32.5452C30.2747 30.7088 28.5966 29.4866 27.5835 28.8957C28.0722 28.2287 28.5186 27.5489 28.9255 26.8591C31.4707 28.001 34.2294 28.9584 37.191 29.6259C35.5163 31.8806 33.2991 33.7065 30.7344 34.914ZM38.0662 28.3295C35.0366 27.6915 32.2223 26.7351 29.6329 25.5837C30.2367 24.4161 30.7368 23.2296 31.1499 22.044C32.4267 21.9513 36.0035 21.474 38.4227 19.0077C39.2352 18.1796 39.8285 17.2079 40.2092 16.1098C40.4293 17.2008 40.5463 18.3289 40.5463 19.484C40.5458 22.7209 39.6388 25.7496 38.0662 28.3295Z" fill="white"/>
<defs>
<filter id="filter0_d" x="0" y="0" width="47" height="59.4909" filterUnits="userSpaceOnUse" color-interpolation-filters="sRGB">
<feFlood flood-opacity="0" result="BackgroundImageFix"/>
<feColorMatrix in="SourceAlpha" type="matrix" values="0 0 0 0 0 0 0 0 0 0 0 0 0 0 0 0 0 0 127 0"/>
<feOffset dy="4"/>
<feGaussianBlur stdDeviation="2"/>
<feColorMatrix type="matrix" values="0 0 0 0 0.379167 0 0 0 0 0.188572 0 0 0 0 0.0126389 0 0 0 0.2 0"/>
<feBlend mode="normal" in2="BackgroundImageFix" result="effect1_dropShadow"/>
<feBlend mode="normal" in="SourceGraphic" in2="effect1_dropShadow" result="shape"/>
</filter>
</defs>
</svg>
